<?xml version="1.0" encoding="UTF-8" standalone="no"?>
<!-- Created with Inkscape (http://www.inkscape.org/) -->

<svg
   xmlns:dc="http://purl.org/dc/elements/1.1/"
   xmlns:cc="http://creativecommons.org/ns#"
   xmlns:rdf="http://www.w3.org/1999/02/22-rdf-syntax-ns#"
   xmlns:svg="http://www.w3.org/2000/svg"
   xmlns="http://www.w3.org/2000/svg"
   xmlns:sodipodi="http://sodipodi.sourceforge.net/DTD/sodipodi-0.dtd"
   xmlns:inkscape="http://www.inkscape.org/namespaces/inkscape"
   width="74.29348mm"
   height="16.670759mm"
   viewBox="0 0 74.293477 16.67076"
   version="1.1"
   id="svg8"
   inkscape:version="0.92.3 (2405546, 2018-03-11)"
   sodipodi:docname="lanyard.svg"
   inkscape:export-xdpi="156.17"
   inkscape:export-ydpi="156.17">
  <defs
     id="defs2">
    <linearGradient
       id="linearGradient931">
      <stop
         id="stop965"
         offset="0"
         style="stop-color:#7b4397;stop-opacity:1" />
      <stop
         style="stop-color:#dc2430;stop-opacity:1"
         offset="1"
         id="stop929" />
    </linearGradient>
  </defs>
  <sodipodi:namedview
     id="base"
     pagecolor="#ffffff"
     bordercolor="#666666"
     borderopacity="1.0"
     inkscape:pageopacity="0.0"
     inkscape:pageshadow="2"
     inkscape:zoom="1.5266191"
     inkscape:cx="96.348696"
     inkscape:cy="38.807937"
     inkscape:document-units="mm"
     inkscape:current-layer="layer2"
     showgrid="false"
     inkscape:window-width="1366"
     inkscape:window-height="704"
     inkscape:window-x="0"
     inkscape:window-y="27"
     inkscape:window-maximized="1"
     showguides="true"
     inkscape:guide-bbox="true"
     fit-margin-top="0"
     fit-margin-left="0"
     fit-margin-right="0"
     fit-margin-bottom="0" />
  <metadata
     id="metadata5">
    <rdf:RDF>
      <cc:Work
         rdf:about="">
        <dc:format>image/svg+xml</dc:format>
        <dc:type
           rdf:resource="http://purl.org/dc/dcmitype/StillImage" />
        <dc:title></dc:title>
      </cc:Work>
    </rdf:RDF>
  </metadata>
  <g
     inkscape:label="Calque 1"
     inkscape:groupmode="layer"
     id="layer1"
     transform="translate(-44.381372,-39.034644)"
     style="display:inline">
    <g
       inkscape:groupmode="layer"
       id="layer2"
       inkscape:label="Layer 1"
       style="display:inline" />
    <flowRoot
       xml:space="preserve"
       id="flowRoot5468-3-1"
       style="font-style:normal;font-weight:normal;font-size:40px;line-height:125%;font-family:sans-serif;letter-spacing:0px;word-spacing:0px;fill:#ffffff;fill-opacity:1;stroke:none;stroke-width:1px;stroke-linecap:butt;stroke-linejoin:miter;stroke-opacity:1"
       transform="matrix(0.29116135,0,0,0.31357405,27.678761,-148.06121)"><flowRegion
         id="flowRegion5470-2-0"
         style="fill:#ffffff"><rect
           id="rect5472-7-7"
           width="220.65881"
           height="69.358353"
           x="111.07588"
           y="592.33276"
           style="fill:#ffffff" /></flowRegion><flowPara
         style="font-style:normal;font-variant:normal;font-weight:normal;font-stretch:normal;font-size:49.82675171px;font-family:'Ostrich Sans Inline';-inkscape-font-specification:'Ostrich Sans Inline, Normal';font-variant-ligatures:normal;font-variant-caps:normal;font-variant-numeric:normal;font-feature-settings:normal;text-align:start;writing-mode:lr-tb;text-anchor:start;fill:#ffffff"
         id="flowPara5480-2-6">Pass thE SALT </flowPara></flowRoot>    <g
       id="g5285"
       transform="translate(-1.5875)">
      <path
         style="color:#000000;font-style:normal;font-variant:normal;font-weight:normal;font-stretch:normal;font-size:medium;line-height:normal;font-family:sans-serif;font-variant-ligatures:normal;font-variant-position:normal;font-variant-caps:normal;font-variant-numeric:normal;font-variant-alternates:normal;font-feature-settings:normal;text-indent:0;text-align:start;text-decoration:none;text-decoration-line:none;text-decoration-style:solid;text-decoration-color:#000000;letter-spacing:normal;word-spacing:normal;text-transform:none;writing-mode:lr-tb;direction:ltr;text-orientation:mixed;dominant-baseline:auto;baseline-shift:baseline;text-anchor:start;white-space:normal;shape-padding:0;clip-rule:nonzero;display:inline;overflow:visible;visibility:visible;opacity:1;isolation:auto;mix-blend-mode:normal;color-interpolation:sRGB;color-interpolation-filters:linearRGB;solid-color:#000000;solid-opacity:1;vector-effect:none;fill:#ffffff;fill-opacity:1;fill-rule:nonzero;stroke:none;stroke-width:1.01415706;stroke-linecap:round;stroke-linejoin:round;stroke-miterlimit:4;stroke-dasharray:none;stroke-dashoffset:0;stroke-opacity:1;marker:none;paint-order:stroke fill markers;color-rendering:auto;image-rendering:auto;shape-rendering:auto;text-rendering:auto;enable-background:accumulate"
         d="m 51.42749,39.034644 c -2.534779,0 -4.17873,0.728389 -4.969667,1.774378 -0.395468,0.522995 -0.562172,1.138671 -0.459144,1.717333 0.08589,0.482397 0.356685,0.921961 0.760816,1.257594 l -0.745762,8.360853 c -0.110658,0.804287 0.263886,1.509037 0.69139,2.015935 0.215519,0.255544 0.450062,0.467317 0.674652,0.631074 0.22459,0.163757 0.419384,0.282616 0.66257,0.343367 0.286206,0.0715 2.356461,0.57637 3.296802,0.570168 0.435277,-0.0029 1.137504,-0.111269 1.822512,-0.232247 0.342504,-0.06049 0.670327,-0.124641 0.933639,-0.183419 0.131655,-0.02939 0.246732,-0.05727 0.344357,-0.08438 0.09763,-0.02711 0.151367,-0.03067 0.285826,-0.106664 0.209134,-0.118199 0.709642,-0.377657 1.151722,-0.802313 0.44208,-0.424657 0.854393,-1.075048 0.780228,-1.889957 l 3.06e-4,0.0027 -0.738433,-8.61469 c 0.406974,-0.334071 0.686082,-0.770316 0.787747,-1.252145 0.120638,-0.571742 -0.01617,-1.190759 -0.38942,-1.719709 -0.74651,-1.0579 -2.355359,-1.787848 -4.890138,-1.787848 z m 0,0.431016 c 2.450407,0 3.911343,0.717328 4.537956,1.60532 0.313308,0.443996 0.414917,0.931849 0.319896,1.382185 -0.09325,0.44196 -0.375073,0.845177 -0.815981,1.139045 l 0.758736,8.852283 1.02e-4,0.0013 c 0.09419,0.642539 -0.227016,1.161843 -0.621667,1.540449 -0.395634,0.379551 -0.868834,0.627554 -1.101311,0.744574 -0.04549,0.0229 -0.107494,0.03912 -0.200256,0.0617 -0.09276,0.02258 -0.211413,0.04803 -0.348419,0.07527 -0.274012,0.05449 -0.621117,0.115997 -0.974641,0.17411 -0.353523,0.05811 -0.713316,0.112785 -1.012572,0.153312 -0.299255,0.04053 -0.533992,0.06721 -0.653656,0.06873 -0.124119,0.0015 -0.374551,-0.02882 -0.699709,-0.07626 -0.325158,-0.04744 -0.718828,-0.112513 -1.104777,-0.182132 -0.38595,-0.06962 -0.764017,-0.143733 -1.058131,-0.209368 -0.147056,-0.03282 -0.272987,-0.06343 -0.369513,-0.09072 -0.04826,-0.01365 -0.08914,-0.02647 -0.122511,-0.03872 -0.03337,-0.01225 -0.05754,-0.02118 -0.08309,-0.04051 -0.181361,-0.137125 -0.594309,-0.435898 -0.935025,-0.853912 -0.339444,-0.416451 -0.611581,-0.959713 -0.50074,-1.580262 l 0.767846,-8.608802 c -0.438331,-0.293302 -0.708904,-0.694094 -0.786962,-1.132508 -0.08037,-0.451373 0.04347,-0.938686 0.378526,-1.381789 0.670114,-0.886206 2.175496,-1.603339 4.625903,-1.603339 z m 0,0.152124 c -2.420629,0 -3.87701,0.713113 -4.504482,1.542925 -0.313736,0.414906 -0.422568,0.856989 -0.350201,1.263438 0.07168,0.402589 0.321966,0.773637 0.746059,1.049018 a 0.07606939,0.07606939 0 0 1 0.04704,0.07299 0.07607345,0.07607345 0 0 1 -3.07e-4,0.0051 0.07607345,0.07607345 0 0 1 -4.02e-4,0.0046 v 1.01e-4 l -0.771511,8.64955 a 0.07606939,0.07606939 0 0 1 -9.01e-4,0.0069 c -0.103578,0.565739 0.142983,1.064972 0.468057,1.463794 0.325074,0.398821 0.723904,0.688775 0.90878,0.828558 -0.0027,-0.002 0.01631,0.0091 0.04387,0.01921 0.02757,0.01012 0.0655,0.02208 0.111419,0.03506 0.09184,0.02596 0.215884,0.05619 0.361293,0.08864 0.29082,0.0649 0.667428,0.138729 1.051891,0.20808 0.384464,0.06935 0.776984,0.134241 1.099825,0.181341 0.322843,0.0471 0.582266,0.07586 0.675841,0.07468 0.09803,-0.0013 0.337831,-0.02708 0.635136,-0.06735 0.297305,-0.04026 0.656035,-0.09471 1.008314,-0.152618 0.352278,-0.05791 0.698185,-0.119351 0.969589,-0.173319 0.135702,-0.02698 0.252885,-0.05205 0.342179,-0.07378 0.08929,-0.02173 0.15556,-0.04367 0.167772,-0.04982 0.229142,-0.115341 0.688696,-0.358028 1.06437,-0.718427 0.375672,-0.360401 0.663561,-0.828631 0.576108,-1.412887 a 0.07606939,0.07606939 0 0 1 -5.94e-4,-0.0048 l -0.760618,-8.873876 a 0.07606939,0.07606939 0 0 1 0.0089,-0.04496 0.07606939,0.07606939 0 0 1 0.03684,-0.05853 c 0.426329,-0.27633 0.688702,-0.652229 0.774681,-1.059715 0.08598,-0.407487 -0.0032,-0.849029 -0.295333,-1.263042 -0.584298,-0.828027 -1.993035,-1.540947 -4.413664,-1.540947 z m 0,0.431017 c 2.336258,0 3.597079,0.700299 4.061481,1.358415 0.232201,0.329059 0.286171,0.639537 0.225809,0.925617 -0.06036,0.286079 -0.243468,0.56404 -0.5874,0.786962 a 0.50712923,0.50712923 0 0 0 -0.235315,0.365354 0.50712923,0.50712923 0 0 0 -0.0011,0.0064 0.50712923,0.50712923 0 0 0 -1.01e-4,0.0011 0.50712923,0.50712923 0 0 0 -0.0043,0.129047 l 0.760618,8.873875 a 0.50712923,0.50712923 0 0 0 2.11e-4,0.0027 c 0.04022,0.441936 -0.160555,0.766699 -0.472811,1.066649 -0.312256,0.299949 -0.70724,0.514597 -0.948197,0.650783 0.0782,-0.0442 0.01261,-0.0072 -0.05814,0.01248 -0.07075,0.01965 -0.173161,0.04474 -0.293947,0.0717 -0.241572,0.05392 -0.558662,0.116154 -0.889071,0.174506 -0.660818,0.116705 -1.416161,0.215334 -1.652858,0.216896 -0.403605,0.0027 -2.998859,-0.528719 -3.044254,-0.540059 0.0013,3.83e-4 -0.153138,-0.06385 -0.310883,-0.178865 C 47.819488,53.857344 47.6387,53.694633 47.480355,53.50688 47.163663,53.131374 46.959366,52.68175 47.019626,52.272658 a 0.50712923,0.50712923 0 0 0 0.0034,-0.02882 L 47.788,43.667578 a 0.50712923,0.50712923 0 0 0 -0.02634,-0.316429 0.50712923,0.50712923 0 0 0 -0.008,-0.01921 0.50712923,0.50712923 0 0 0 -0.0022,-0.0046 0.50712923,0.50712923 0 0 0 -0.249281,-0.250172 c -0.305612,-0.213552 -0.458409,-0.466402 -0.505097,-0.728628 -0.0497,-0.27916 0.01636,-0.592881 0.269682,-0.927894 0.506649,-0.670028 1.824461,-1.371885 4.160719,-1.371885 z"
         id="path868"
         inkscape:connector-curvature="0" />
      <path
         style="color:#000000;font-style:normal;font-variant:normal;font-weight:normal;font-stretch:normal;font-size:medium;line-height:normal;font-family:sans-serif;font-variant-ligatures:normal;font-variant-position:normal;font-variant-caps:normal;font-variant-numeric:normal;font-variant-alternates:normal;font-feature-settings:normal;text-indent:0;text-align:start;text-decoration:none;text-decoration-line:none;text-decoration-style:solid;text-decoration-color:#000000;letter-spacing:normal;word-spacing:normal;text-transform:none;writing-mode:lr-tb;direction:ltr;text-orientation:mixed;dominant-baseline:auto;baseline-shift:baseline;text-anchor:start;white-space:normal;shape-padding:0;clip-rule:nonzero;display:inline;overflow:visible;visibility:visible;opacity:1;isolation:auto;mix-blend-mode:normal;color-interpolation:sRGB;color-interpolation-filters:linearRGB;solid-color:#000000;solid-opacity:1;vector-effect:none;fill:#ffffff;fill-opacity:1;fill-rule:nonzero;stroke:none;stroke-width:0.64357799;stroke-linecap:round;stroke-linejoin:round;stroke-miterlimit:4;stroke-dasharray:none;stroke-dashoffset:0;stroke-opacity:1;marker:none;paint-order:stroke fill markers;color-rendering:auto;image-rendering:auto;shape-rendering:auto;text-rendering:auto;enable-background:accumulate"
         d="m 49.175645,45.122953 a 0.3218212,0.3218212 0 0 0 -0.310784,0.299494 l -0.638403,7.665205 a 0.3218212,0.3218212 0 1 0 0.641375,0.05338 l 0.638404,-7.665105 a 0.3218212,0.3218212 0 0 0 -0.330592,-0.352974 z"
         id="path4567"
         inkscape:connector-curvature="0" />
      <path
         style="color:#000000;font-style:normal;font-variant:normal;font-weight:normal;font-stretch:normal;font-size:medium;line-height:normal;font-family:sans-serif;font-variant-ligatures:normal;font-variant-position:normal;font-variant-caps:normal;font-variant-numeric:normal;font-variant-alternates:normal;font-feature-settings:normal;text-indent:0;text-align:start;text-decoration:none;text-decoration-line:none;text-decoration-style:solid;text-decoration-color:#000000;letter-spacing:normal;word-spacing:normal;text-transform:none;writing-mode:lr-tb;direction:ltr;text-orientation:mixed;dominant-baseline:auto;baseline-shift:baseline;text-anchor:start;white-space:normal;shape-padding:0;clip-rule:nonzero;display:inline;overflow:visible;visibility:visible;opacity:1;isolation:auto;mix-blend-mode:normal;color-interpolation:sRGB;color-interpolation-filters:linearRGB;solid-color:#000000;solid-opacity:1;vector-effect:none;fill:#ffffff;fill-opacity:1;fill-rule:nonzero;stroke:none;stroke-width:0.66663408;stroke-linecap:round;stroke-linejoin:round;stroke-miterlimit:4;stroke-dasharray:none;stroke-dashoffset:0;stroke-opacity:1;marker:none;paint-order:stroke fill markers;color-rendering:auto;image-rendering:auto;shape-rendering:auto;text-rendering:auto;enable-background:accumulate"
         d="m 51.330234,45.41076 a 0.33335039,0.33335039 0 0 0 -0.328314,0.338019 v 7.964104 a 0.33335039,0.33335039 0 1 0 0.66663,0 V 45.748779 A 0.33335039,0.33335039 0 0 0 51.330234,45.41076 Z"
         id="path4569"
         inkscape:connector-curvature="0" />
      <path
         style="color:#000000;font-style:normal;font-variant:normal;font-weight:normal;font-stretch:normal;font-size:medium;line-height:normal;font-family:sans-serif;font-variant-ligatures:normal;font-variant-position:normal;font-variant-caps:normal;font-variant-numeric:normal;font-variant-alternates:normal;font-feature-settings:normal;text-indent:0;text-align:start;text-decoration:none;text-decoration-line:none;text-decoration-style:solid;text-decoration-color:#000000;letter-spacing:normal;word-spacing:normal;text-transform:none;writing-mode:lr-tb;direction:ltr;text-orientation:mixed;dominant-baseline:auto;baseline-shift:baseline;text-anchor:start;white-space:normal;shape-padding:0;clip-rule:nonzero;display:inline;overflow:visible;visibility:visible;opacity:1;isolation:auto;mix-blend-mode:normal;color-interpolation:sRGB;color-interpolation-filters:linearRGB;solid-color:#000000;solid-opacity:1;vector-effect:none;fill:#ffffff;fill-opacity:1;fill-rule:nonzero;stroke:none;stroke-width:0.64394587;stroke-linecap:round;stroke-linejoin:round;stroke-miterlimit:4;stroke-dasharray:none;stroke-dashoffset:0;stroke-opacity:1;marker:none;paint-order:stroke fill markers;color-rendering:auto;image-rendering:auto;shape-rendering:auto;text-rendering:auto;enable-background:accumulate"
         d="m 53.603174,45.122755 a 0.32200514,0.32200514 0 0 0 -0.328116,0.346735 l 0.484993,7.674118 a 0.32200514,0.32200514 0 1 0 0.642663,-0.04061 l -0.484993,-7.674114 a 0.32200514,0.32200514 0 0 0 -0.314547,-0.306129 z"
         id="path4571"
         inkscape:connector-curvature="0" />
      <path
         style="color:#000000;font-style:normal;font-variant:normal;font-weight:normal;font-stretch:normal;font-size:medium;line-height:normal;font-family:sans-serif;font-variant-ligatures:normal;font-variant-position:normal;font-variant-caps:normal;font-variant-numeric:normal;font-variant-alternates:normal;font-feature-settings:normal;text-indent:0;text-align:start;text-decoration:none;text-decoration-line:none;text-decoration-style:solid;text-decoration-color:#000000;letter-spacing:normal;word-spacing:normal;text-transform:none;writing-mode:lr-tb;direction:ltr;text-orientation:mixed;dominant-baseline:auto;baseline-shift:baseline;text-anchor:start;white-space:normal;shape-padding:0;clip-rule:nonzero;display:inline;overflow:visible;visibility:visible;opacity:1;isolation:auto;mix-blend-mode:normal;color-interpolation:sRGB;color-interpolation-filters:linearRGB;solid-color:#000000;solid-opacity:1;vector-effect:none;fill:#ffffff;fill-opacity:1;fill-rule:nonzero;stroke:none;stroke-width:1.01415706;stroke-linecap:round;stroke-linejoin:round;stroke-miterlimit:4;stroke-dasharray:none;stroke-dashoffset:0;stroke-opacity:1;marker:none;paint-order:stroke fill markers;color-rendering:auto;image-rendering:auto;shape-rendering:auto;text-rendering:auto;enable-background:accumulate"
         d="m 50.321029,40.637388 a 0.50712923,0.50712923 0 1 0 0,1.014157 0.50712923,0.50712923 0 1 0 0,-1.014157 z"
         id="path4577"
         inkscape:connector-curvature="0" />
      <path
         style="color:#000000;font-style:normal;font-variant:normal;font-weight:normal;font-stretch:normal;font-size:medium;line-height:normal;font-family:sans-serif;font-variant-ligatures:normal;font-variant-position:normal;font-variant-caps:normal;font-variant-numeric:normal;font-variant-alternates:normal;font-feature-settings:normal;text-indent:0;text-align:start;text-decoration:none;text-decoration-line:none;text-decoration-style:solid;text-decoration-color:#000000;letter-spacing:normal;word-spacing:normal;text-transform:none;writing-mode:lr-tb;direction:ltr;text-orientation:mixed;dominant-baseline:auto;baseline-shift:baseline;text-anchor:start;white-space:normal;shape-padding:0;clip-rule:nonzero;display:inline;overflow:visible;visibility:visible;opacity:1;isolation:auto;mix-blend-mode:normal;color-interpolation:sRGB;color-interpolation-filters:linearRGB;solid-color:#000000;solid-opacity:1;vector-effect:none;fill:#ffffff;fill-opacity:1;fill-rule:nonzero;stroke:none;stroke-width:1.01415706;stroke-linecap:round;stroke-linejoin:round;stroke-miterlimit:4;stroke-dasharray:none;stroke-dashoffset:0;stroke-opacity:1;marker:none;paint-order:stroke fill markers;color-rendering:auto;image-rendering:auto;shape-rendering:auto;text-rendering:auto;enable-background:accumulate"
         d="m 52.349343,40.637388 a 0.50712923,0.50712923 0 1 0 0,1.014157 0.50712923,0.50712923 0 1 0 0,-1.014157 z"
         id="path4579"
         inkscape:connector-curvature="0" />
      <path
         style="color:#000000;font-style:normal;font-variant:normal;font-weight:normal;font-stretch:normal;font-size:medium;line-height:normal;font-family:sans-serif;font-variant-ligatures:normal;font-variant-position:normal;font-variant-caps:normal;font-variant-numeric:normal;font-variant-alternates:normal;font-feature-settings:normal;text-indent:0;text-align:start;text-decoration:none;text-decoration-line:none;text-decoration-style:solid;text-decoration-color:#000000;letter-spacing:normal;word-spacing:normal;text-transform:none;writing-mode:lr-tb;direction:ltr;text-orientation:mixed;dominant-baseline:auto;baseline-shift:baseline;text-anchor:start;white-space:normal;shape-padding:0;clip-rule:nonzero;display:inline;overflow:visible;visibility:visible;opacity:1;isolation:auto;mix-blend-mode:normal;color-interpolation:sRGB;color-interpolation-filters:linearRGB;solid-color:#000000;solid-opacity:1;vector-effect:none;fill:#ffffff;fill-opacity:1;fill-rule:nonzero;stroke:none;stroke-width:0.60849422;stroke-linecap:round;stroke-linejoin:round;stroke-miterlimit:4;stroke-dasharray:none;stroke-dashoffset:0;stroke-opacity:1;marker:none;paint-order:stroke fill markers;color-rendering:auto;image-rendering:auto;shape-rendering:auto;text-rendering:auto;enable-background:accumulate"
         d="m 48.526644,43.397401 a 0.30427753,0.30427753 0 0 0 -0.107754,0.593242 c 2.009276,0.687511 3.946837,0.681075 5.776734,0.02813 a 0.30427753,0.30427753 0 1 0 -0.204515,-0.573038 c -1.704426,0.608177 -3.479124,0.617987 -5.375231,-0.0308 a 0.30427753,0.30427753 0 0 0 -0.08923,-0.01753 z"
         id="path4575-3"
         inkscape:connector-curvature="0" />
    </g>
  </g>
</svg>
