<?xml version="1.0" encoding="UTF-8" standalone="no"?>
<!-- Generator: Adobe Illustrator 18.0.0, SVG Export Plug-In . SVG Version: 6.00 Build 0)  -->

<svg
   xmlns:dc="http://purl.org/dc/elements/1.1/"
   xmlns:cc="http://creativecommons.org/ns#"
   xmlns:rdf="http://www.w3.org/1999/02/22-rdf-syntax-ns#"
   xmlns:svg="http://www.w3.org/2000/svg"
   xmlns="http://www.w3.org/2000/svg"
   xmlns:sodipodi="http://sodipodi.sourceforge.net/DTD/sodipodi-0.dtd"
   xmlns:inkscape="http://www.inkscape.org/namespaces/inkscape"
   version="1.1"
   id="Capa_1"
   x="0px"
   y="0px"
   viewBox="0 0 217.49544 333.64275"
   xml:space="preserve"
   sodipodi:docname="sticker_salt2019_splash.svg"
   width="217.49544"
   height="333.64276"
   inkscape:version="0.92.4 (5da689c313, 2019-01-14)"
   inkscape:export-xdpi="399.94873"
   inkscape:export-ydpi="399.94873"><metadata
   id="metadata51"><rdf:RDF><cc:Work
       rdf:about=""><dc:format>image/svg+xml</dc:format><dc:type
         rdf:resource="http://purl.org/dc/dcmitype/StillImage" /><dc:title /></cc:Work></rdf:RDF></metadata><defs
   id="defs49"><inkscape:path-effect
     effect="envelope"
     id="path-effect5239"
     is_visible="true"
     yy="true"
     xx="true"
     bendpath1="M -278.02966,21.236748 H -79.013667"
     bendpath2="M -79.013667,21.236748 V 220.21754"
     bendpath3="M -278.02966,220.21754 H -79.013667"
     bendpath4="M -278.02966,21.236748 V 220.21754" /><inkscape:path-effect
     effect="mirror_symmetry"
     start_point="135.30356,-2.4433594"
     end_point="135.30356,331.1994"
     center_point="135.30356,164.37802"
     id="path-effect4604"
     is_visible="true"
     mode="vertical"
     discard_orig_path="false"
     fuse_paths="true"
     oposite_fuse="true" /><inkscape:path-effect
     effect="mirror_symmetry"
     start_point="244.05127,-2.4433594"
     end_point="244.05127,331.20434"
     center_point="244.05127,164.38049"
     id="path-effect4601"
     is_visible="true"
     mode="vertical"
     discard_orig_path="false"
     fuse_paths="false"
     oposite_fuse="false" /><inkscape:path-effect
     effect="mirror_symmetry"
     start_point="135.30156,-4.9179731"
     end_point="135.30156,333.72201"
     center_point="135.30156,164.40202"
     id="path-effect931"
     is_visible="true"
     mode="vertical"
     discard_orig_path="false"
     fuse_paths="false"
     oposite_fuse="false" /><inkscape:path-effect
     effect="mirror_symmetry"
     start_point="135.57598,-2.4481799"
     end_point="135.57598,336.1918"
     center_point="135.57598,166.87181"
     id="path-effect929"
     is_visible="true"
     mode="vertical"
     discard_orig_path="false"
     fuse_paths="false"
     oposite_fuse="false" /><inkscape:path-effect
     effect="mirror_symmetry"
     start_point="135.30156,-2.4218794"
     end_point="135.30156,331.22088"
     center_point="135.30156,164.3995"
     id="path-effect916"
     is_visible="true"
     mode="vertical"
     discard_orig_path="false"
     fuse_paths="true"
     oposite_fuse="false" /><inkscape:path-effect
     effect="mirror_symmetry"
     start_point="135.30354,0"
     end_point="135.30354,328.76089"
     center_point="135.30354,164.38045"
     id="path-effect847"
     is_visible="true"
     mode="vertical"
     discard_orig_path="false"
     fuse_paths="false"
     oposite_fuse="false" /><inkscape:path-effect
     effect="mirror_symmetry"
     start_point="135.30156,-2.4218794"
     end_point="135.30156,331.22088"
     center_point="135.30156,164.3995"
     id="path-effect845"
     is_visible="true"
     mode="vertical"
     discard_orig_path="false"
     fuse_paths="true"
     oposite_fuse="true" /><inkscape:path-effect
     effect="mirror_symmetry"
     start_point="135.30156,-2.4218794"
     end_point="135.30156,331.22088"
     center_point="135.30156,164.3995"
     id="path-effect843"
     is_visible="true"
     mode="vertical"
     discard_orig_path="false"
     fuse_paths="true"
     oposite_fuse="true" /><inkscape:path-effect
     effect="mirror_symmetry"
     start_point="135.30354,0"
     end_point="135.30354,328.76089"
     center_point="135.30354,164.38045"
     id="path-effect843-3"
     is_visible="true"
     mode="vertical"
     discard_orig_path="false"
     fuse_paths="true"
     oposite_fuse="true" /><inkscape:path-effect
     effect="mirror_symmetry"
     start_point="135.98114,3.7734612"
     end_point="135.98114,330.84615"
     center_point="135.98114,167.30981"
     id="path-effect847-7"
     is_visible="true"
     mode="vertical"
     discard_orig_path="false"
     fuse_paths="false"
     oposite_fuse="false" /></defs><sodipodi:namedview
   pagecolor="#ffffff"
   bordercolor="#666666"
   borderopacity="1"
   objecttolerance="10"
   gridtolerance="10"
   guidetolerance="10"
   inkscape:pageopacity="0"
   inkscape:pageshadow="2"
   inkscape:window-width="3840"
   inkscape:window-height="2040"
   id="namedview47"
   showgrid="true"
   showguides="true"
   inkscape:guide-bbox="true"
   fit-margin-top="0"
   fit-margin-left="0"
   fit-margin-right="0"
   fit-margin-bottom="0"
   inkscape:zoom="3.6440298"
   inkscape:cx="34.888309"
   inkscape:cy="134.85234"
   inkscape:window-x="0"
   inkscape:window-y="0"
   inkscape:window-maximized="1"
   inkscape:current-layer="Capa_1"
   inkscape:snap-bbox="true"
   inkscape:snap-bbox-midpoints="true"
   inkscape:snap-midpoints="true"
   inkscape:snap-grids="false"><inkscape:grid
     type="xygrid"
     id="grid870"
     originx="-41.725209"
     originy="51.613305" /><sodipodi:guide
     position="188.27479,76.055292"
     orientation="1,0"
     id="guide4563"
     inkscape:locked="false" /><sodipodi:guide
     position="118.27479,61.613338"
     orientation="0,1"
     id="guide4565"
     inkscape:locked="false" /><sodipodi:guide
     position="108.2748,611.61334"
     orientation="0,1"
     id="guide4593"
     inkscape:locked="false" /><sodipodi:guide
     position="114.27479,269.61332"
     orientation="0,1"
     id="guide855"
     inkscape:locked="false" /><sodipodi:guide
     position="197.27479,62.613335"
     orientation="0,1"
     id="guide876"
     inkscape:locked="false" /><sodipodi:guide
     position="121.7362,204.72095"
     orientation="0,1"
     id="guide843"
     inkscape:locked="false" /></sodipodi:namedview><path
   transform="translate(-26.55584,2.4433594)"
   style="color:#000000;font-style:normal;font-variant:normal;font-weight:normal;font-stretch:normal;font-size:medium;line-height:normal;font-family:sans-serif;font-variant-ligatures:normal;font-variant-position:normal;font-variant-caps:normal;font-variant-numeric:normal;font-variant-alternates:normal;font-feature-settings:normal;text-indent:0;text-align:start;text-decoration:none;text-decoration-line:none;text-decoration-style:solid;text-decoration-color:#000000;letter-spacing:normal;word-spacing:normal;text-transform:none;writing-mode:lr-tb;direction:ltr;text-orientation:mixed;dominant-baseline:auto;baseline-shift:baseline;text-anchor:start;white-space:normal;shape-padding:0;clip-rule:nonzero;display:inline;overflow:visible;visibility:visible;opacity:1;isolation:auto;mix-blend-mode:normal;color-interpolation:sRGB;color-interpolation-filters:linearRGB;solid-color:#000000;solid-opacity:1;vector-effect:none;fill:#ffffff;fill-opacity:1;fill-rule:nonzero;stroke:none;stroke-width:20;stroke-linecap:round;stroke-linejoin:round;stroke-miterlimit:4;stroke-dasharray:none;stroke-dashoffset:0;stroke-opacity:1;marker:none;paint-order:stroke fill markers;color-rendering:auto;image-rendering:auto;shape-rendering:auto;text-rendering:auto;enable-background:accumulate"
   d="m 136.64844,-2.4433594 c -0.44966,0 -0.89795,0.00115 -1.34488,0.00344 -0.44693,-0.00229 -0.89522,-0.00344 -1.34488,-0.00344 -50.458302,0 -83.054782,14.4992214 -98.433592,36.2929684 -7.71489,10.932978 -10.6057,23.837911 -8.07617,35.826172 1.95153,9.249076 7.13659,17.578275 14.48437,24.253907 0.575992,0.523255 0.874996,1.285205 0.8086,2.060546 L 28.382708,263.51172 c -0.007,0.10128 -0.009,0.20329 -0.004,0.30469 0.0055,0.10675 0.0042,0.21374 -0.004,0.32031 -1.26348,16.6835 7.20044,30.0117 16.13867,38.59766 9.024,8.66832 19.17452,13.91144 23.20508,16.18945 2.80229,1.58382 4.41573,1.8391 6.18359,2.33008 1.98621,0.5516 4.28941,1.1079 6.91211,1.69336 5.24543,1.1709 11.73681,2.44275 18.51953,3.64062 13.362522,2.35991 26.968542,4.49547 35.969872,4.61152 9.00133,-0.11605 22.60735,-2.25161 35.96987,-4.61152 6.78272,-1.19787 13.2741,-2.46972 18.51953,-3.64062 2.6227,-0.58546 4.9259,-1.14176 6.91211,-1.69336 1.76786,-0.49098 3.3813,-0.74626 6.18359,-2.33008 4.03056,-2.27801 14.18108,-7.52113 23.20508,-16.18945 8.93823,-8.58596 17.40215,-21.91416 16.13867,-38.59766 -0.008,-0.10657 -0.01,-0.21356 -0.004,-0.32031 0.005,-0.1014 0.003,-0.20341 -0.004,-0.30469 L 227.86523,95.990234 c -0.0664,-0.775341 0.23261,-1.537291 0.8086,-2.060546 7.34778,-6.675632 12.53284,-15.004831 14.48437,-24.253907 C 245.68773,57.68752 242.79692,44.782587 235.08203,33.849609 219.70322,12.055862 187.10674,-2.4433594 136.64844,-2.4433594 Z"
   id="path868-6"
   inkscape:path-effect="#path-effect4604"
   inkscape:original-d="m 136.64844,-2.4433594 c -50.457947,0 -83.69482,14.4592064 -99.955081,35.9628904 -8.15419,10.783661 -11.675721,23.613479 -9.511718,35.767578 1.6531,9.284624 6.684727,17.694869 13.974609,24.417969 a 2.4961133,2.4961133 0 0 1 0.794922,2.056641 L 27.460938,258.20898 h 0.0039 c -2.311006,16.79691 5.491682,31.35331 14.1875,41.66407 4.385572,5.20004 9.146698,9.50208 13.732422,12.8457 4.51519,3.29219 8.698577,5.86506 13.914062,7.16797 2.855315,0.71334 14.490956,3.56058 27.78125,6.22266 13.300238,2.66406 28.094108,5.15806 37.843748,5.09374 8.99555,-0.0593 22.7978,-2.22189 36.34961,-4.61523 6.78272,-1.19787 13.2741,-2.46972 18.51953,-3.64062 2.6227,-0.58546 4.9259,-1.14176 6.91211,-1.69336 1.76786,-0.49098 3.3813,-0.74626 6.18359,-2.33008 4.03056,-2.27801 14.18108,-7.52113 23.20508,-16.18945 8.93823,-8.58596 17.40215,-21.91416 16.13867,-38.59766 a 2.4961133,2.4961133 0 0 1 -0.004,-0.32031 c 0.005,-0.1014 0.003,-0.20341 -0.004,-0.30469 L 227.86523,95.990234 a 2.4961133,2.4961133 0 0 1 0.8086,-2.060546 C 236.02161,87.254056 241.20667,78.924857 243.1582,69.675781 245.68773,57.68752 242.79692,44.782587 235.08203,33.849609 219.70322,12.055862 187.10674,-2.4433594 136.64844,-2.4433594 Z"
   inkscape:export-xdpi="156.17"
   inkscape:export-ydpi="156.17"
   inkscape:connector-curvature="0" /><g
   id="g16"
   transform="translate(-41.725213,-15.286591)" /><g
   id="g18"
   transform="translate(-41.725213,-15.286591)" /><g
   id="g20"
   transform="translate(-41.725213,-15.286591)" /><g
   id="g22"
   transform="translate(-41.725213,-15.286591)" /><g
   id="g24"
   transform="translate(-41.725213,-15.286591)" /><g
   id="g26"
   transform="translate(-41.725213,-15.286591)" /><g
   id="g28"
   transform="translate(-41.725213,-15.286591)" /><g
   id="g30"
   transform="translate(-41.725213,-15.286591)" /><g
   id="g32"
   transform="translate(-41.725213,-15.286591)" /><g
   id="g34"
   transform="translate(-41.725213,-15.286591)" /><g
   id="g36"
   transform="translate(-41.725213,-15.286591)" /><g
   id="g38"
   transform="translate(-41.725213,-15.286591)" /><g
   id="g40"
   transform="translate(-41.725213,-15.286591)" /><g
   id="g42"
   transform="translate(-41.725213,-15.286591)" /><g
   id="g44"
   transform="translate(-41.725213,-15.286591)" /><path
   style="color:#000000;font-style:normal;font-variant:normal;font-weight:normal;font-stretch:normal;font-size:medium;line-height:normal;font-family:sans-serif;font-variant-ligatures:normal;font-variant-position:normal;font-variant-caps:normal;font-variant-numeric:normal;font-variant-alternates:normal;font-feature-settings:normal;text-indent:0;text-align:start;text-decoration:none;text-decoration-line:none;text-decoration-style:solid;text-decoration-color:#000000;letter-spacing:normal;word-spacing:normal;text-transform:none;writing-mode:lr-tb;direction:ltr;text-orientation:mixed;dominant-baseline:auto;baseline-shift:baseline;text-anchor:start;white-space:normal;shape-padding:0;clip-rule:nonzero;display:inline;overflow:visible;visibility:visible;opacity:1;isolation:auto;mix-blend-mode:normal;color-interpolation:sRGB;color-interpolation-filters:linearRGB;solid-color:#000000;solid-opacity:1;vector-effect:none;fill:#000000;fill-opacity:1;fill-rule:nonzero;stroke:none;stroke-width:20;stroke-linecap:round;stroke-linejoin:round;stroke-miterlimit:4;stroke-dasharray:none;stroke-dashoffset:0;stroke-opacity:1;marker:none;paint-order:stroke fill markers;color-rendering:auto;image-rendering:auto;shape-rendering:auto;text-rendering:auto;enable-background:accumulate"
   d="m 136.64837,0 c -0.45036,0 -0.8993,0.00116596 -1.34681,0.00349195 C 134.85405,0.00116596 134.40511,0 133.95475,0 83.966848,0 52.239028,14.395162 37.517248,35.257812 c -7.36089,10.431326 -10.05876,22.638845 -7.67968,33.914063 2.00492,9.50206 7.50916,18.105164 15.53501,24.693319 l -14.5625,169.888676 0.006,-0.0527 c -1.4626,16.07067 6.66855,28.89693 15.38672,37.27149 8.71817,8.37455 18.58861,13.49128 22.71289,15.82226 2.65165,1.49868 3.71148,1.56884 5.63672,2.10352 1.92524,0.53467 4.19466,1.08449 6.79101,1.66406 5.19271,1.15914 11.65765,2.42431 18.41211,3.61719 13.303422,2.34947 26.936162,4.45838 35.546032,4.57606 8.60987,-0.11768 22.24261,-2.22659 35.54603,-4.57606 6.75446,-1.19288 13.2194,-2.45805 18.41211,-3.61719 2.59635,-0.57957 4.86577,-1.12939 6.79101,-1.66406 1.92524,-0.53468 2.98507,-0.60484 5.63672,-2.10352 4.12428,-2.33098 13.99472,-7.44771 22.71289,-15.82226 8.71817,-8.37456 16.84932,-21.20082 15.38672,-37.27149 l 0.006,0.0527 -14.5625,-169.888676 c 8.02585,-6.588155 13.53009,-15.191259 15.53501,-24.693319 2.37908,-11.275218 -0.31879,-23.482737 -7.67968,-33.914063 C 218.36409,14.395162 186.63627,0 136.64837,0 Z m 0,8.5 c 48.32402,0 77.13486,14.146274 89.49218,31.658203 6.17869,8.755965 8.18249,18.37683 6.3086,27.257813 -1.83904,8.715809 -7.39674,16.667573 -16.0918,22.46289 l 14.96289,174.574214 0.002,0.0254 c 1.85761,12.67141 -4.47693,22.91248 -12.25977,30.3789 -7.80223,7.48503 -17.13411,12.37586 -21.71875,14.6836 -0.8971,0.45156 -2.11987,0.77154 -3.94922,1.21679 -1.82935,0.44525 -4.16922,0.94712 -6.87109,1.48438 -5.40375,1.07452 -12.24894,2.28755 -19.22071,3.43359 -6.97176,1.14604 -14.06718,2.22419 -19.96875,3.02344 -5.25348,0.71148 -9.49869,1.2066 -12.03239,1.32793 -2.5337,-0.12133 -6.77891,-0.61645 -12.03239,-1.32793 -5.90157,-0.79925 -12.99699,-1.8774 -19.96875,-3.02344 -6.971772,-1.14604 -13.816962,-2.35907 -19.220712,-3.43359 -2.70187,-0.53726 -5.04174,-1.03913 -6.87109,-1.48438 -1.82935,-0.44525 -3.05212,-0.76523 -3.94922,-1.21679 -4.58464,-2.30774 -13.91652,-7.19857 -21.71875,-14.6836 -7.78284,-7.46642 -14.11738,-17.70749 -12.25977,-30.3789 l 0.002,-0.0254 14.96289,-174.574214 c -8.69506,-5.795317 -14.25276,-13.747081 -16.0918,-22.46289 -1.87389,-8.880983 0.12991,-18.501848 6.3086,-27.257813 C 56.819888,22.646274 85.630728,8.5 133.95475,8.5 c 0.45055,0 0.89949,0.00123 1.34681,0.00368 C 135.74888,8.5012294 136.19781,8.5 136.64837,8.5 Z m 0,3 c -0.45063,0 -0.89957,0.0013 -1.34681,0.0038 -0.44725,-0.0025 -0.89618,-0.0038 -1.34681,-0.0038 -47.736772,0 -75.518192,14.059351 -87.041022,30.388722 -5.76142,8.16466 -7.51981,16.872245 -5.82422,24.908203 1.69559,8.035958 6.86978,15.449006 15.27734,20.898437 0.41321,0.24606 0.683399,0.675313 0.72656,1.154297 0.148376,0.270467 0.20976,0.580102 0.17579,0.886719 l -15,175.000002 c -0.0029,0.0313 -0.0068,0.0626 -0.0117,0.0937 -1.72465,11.52201 3.95277,20.7559 11.36132,27.86328 7.40859,7.10738 16.47137,11.89334 20.99024,14.16797 0.24083,0.12123 1.54763,0.55382 3.30859,0.98242 1.76096,0.4286 4.0719,0.92293 6.74805,1.45508 5.35231,1.06429 12.17388,2.27596 19.121092,3.41797 6.94722,1.142 14.02167,2.21572 19.88477,3.00976 5.09842,0.69048 9.33932,1.16579 11.63,1.29421 2.29067,-0.12842 6.53158,-0.60373 11.63,-1.29421 5.8631,-0.79404 12.93755,-1.86776 19.88477,-3.00976 6.94721,-1.14201 13.76878,-2.35368 19.12109,-3.41797 2.67615,-0.53215 4.98709,-1.02648 6.74805,-1.45508 1.76096,-0.4286 3.06776,-0.86119 3.30859,-0.98242 4.51887,-2.27463 13.58165,-7.06059 20.99024,-14.16797 7.40855,-7.10738 13.08597,-16.34127 11.36132,-27.86328 -0.005,-0.0311 -0.009,-0.0624 -0.0117,-0.0937 l -15,-175.000002 c -0.034,-0.306617 0.0274,-0.616252 0.17579,-0.886719 0.0432,-0.478984 0.31335,-0.908237 0.72656,-1.154297 8.40756,-5.449431 13.58175,-12.862479 15.27734,-20.898437 1.69559,-8.035958 -0.0628,-16.743543 -5.82422,-24.908203 C 212.16656,25.559351 184.38514,11.5 136.64837,11.5 Z m 0,8.5 c 46.07289,0 70.93732,13.810468 80.0957,26.789062 4.57919,6.489298 5.64353,12.612187 4.45313,18.253907 -1.19041,5.64172 -4.80138,11.123327 -11.58399,15.519531 -2.54969,1.583647 -4.2533,4.228701 -4.64062,7.205078 -0.007,0.04227 -0.0146,0.08459 -0.0215,0.126953 -6.7e-4,0.0072 -0.001,0.01432 -0.002,0.02148 -0.13632,0.841263 -0.16455,1.696501 -0.084,2.544922 l 15,174.999997 c 0.001,0.0176 0.003,0.0351 0.004,0.0527 0.79319,8.71532 -3.16628,15.11993 -9.32422,21.03516 -6.15794,5.91523 -13.94734,10.14829 -18.69922,12.83398 1.54213,-0.8716 0.24871,-0.14139 -1.14648,0.2461 -1.39519,0.38747 -3.41488,0.88234 -5.79688,1.41406 -4.76399,1.06344 -11.01727,2.29064 -17.5332,3.44141 -12.57496,2.22082 -26.88561,4.10972 -32.06753,4.26711 -5.18192,-0.15739 -19.49258,-2.04629 -32.06753,-4.26711 -6.515932,-1.15077 -12.769212,-2.37797 -17.533202,-3.44141 -2.382,-0.53172 -4.40169,-1.02659 -5.79688,-1.41406 -1.39519,-0.38749 -2.68861,-1.1177 -1.14648,-0.2461 -4.75188,-2.68569 -12.54128,-6.91875 -18.69922,-12.83398 -6.15794,-5.91523 -10.11741,-12.31984 -9.32422,-21.03516 0.0014,-0.0176 0.0027,-0.0351 0.004,-0.0527 l 15,-174.999997 c 0.08055,-0.848421 0.05232,-1.703659 -0.084,-2.544922 -6.59e-4,-0.0072 -0.0013,-0.01432 -0.002,-0.02148 -0.0069,-0.04236 -0.01406,-0.08468 -0.0215,-0.126953 -0.387318,-2.976377 -2.090935,-5.621431 -4.64062,-7.205078 -6.78261,-4.396204 -10.39358,-9.877811 -11.58399,-15.519531 -1.1904,-5.64172 -0.12606,-11.764609 4.45313,-18.253907 C 63.017428,33.810468 87.881858,20 133.95475,20 c 0.45086,0 0.89979,0.0013 1.34681,0.004 0.44702,-0.0026 0.89595,-0.004 1.34681,-0.004 z"
   id="path868"
   inkscape:connector-curvature="0"
   inkscape:path-effect="#path-effect843"
   inkscape:original-d="M 136.64837,0 C 86.660461,0 54.240425,14.364428 38.642505,34.992188 c -7.79896,10.313879 -11.086502,22.455519 -9.054687,33.867187 1.693809,9.513264 7.034113,18.181833 15.003906,24.800781 L 29.884693,258.54297 c -2.182264,15.86119 5.204041,29.75942 13.634765,39.75586 4.250215,5.03954 8.87559,9.21589 13.304688,12.44531 4.429098,3.22942 8.270581,5.57339 13.066406,6.77148 5.64422,1.41008 46.471338,11.36648 65.015628,11.24415 8.584,-0.0566 22.43249,-2.19432 35.94141,-4.58008 6.75446,-1.19288 13.2194,-2.45805 18.41211,-3.61719 2.59635,-0.57957 4.86577,-1.12939 6.79101,-1.66406 1.92524,-0.53468 2.98507,-0.60484 5.63672,-2.10352 4.12428,-2.33098 13.99472,-7.44771 22.71289,-15.82226 8.71817,-8.37456 16.84932,-21.20082 15.38672,-37.27149 l 0.006,0.0527 -14.5625,-169.888676 c 8.02585,-6.588155 13.53009,-15.191259 15.53501,-24.693319 2.37908,-11.275218 -0.31879,-23.482737 -7.67968,-33.914063 C 218.36409,14.395162 186.63627,0 136.64837,0 Z m 0,8.5 c 48.32402,0 77.13486,14.146274 89.49218,31.658203 6.17869,8.755965 8.18249,18.37683 6.3086,27.257813 -1.83904,8.715809 -7.39674,16.667573 -16.0918,22.46289 l 14.96289,174.574214 0.002,0.0254 c 1.85761,12.67141 -4.47693,22.91248 -12.25977,30.3789 -7.80223,7.48503 -17.13411,12.37586 -21.71875,14.6836 -0.8971,0.45156 -2.11987,0.77154 -3.94922,1.21679 -1.82935,0.44525 -4.16922,0.94712 -6.87109,1.48438 -5.40375,1.07452 -12.24894,2.28755 -19.22071,3.43359 -6.97176,1.14604 -14.06718,2.22419 -19.96875,3.02344 -5.90156,0.79925 -10.53075,1.32547 -12.89062,1.35547 -2.44773,0.0311 -7.38645,-0.56838 -13.79883,-1.50391 -6.41238,-0.93552 -14.17587,-2.21883 -21.787111,-3.5918 -7.611238,-1.37296 -15.067029,-2.83453 -20.867188,-4.1289 -2.900079,-0.64719 -5.383526,-1.25099 -7.287109,-1.78906 -0.951791,-0.26904 -1.757882,-0.52201 -2.416016,-0.76368 -0.658133,-0.24166 -1.134642,-0.41773 -1.638671,-0.79882 -3.576586,-2.70422 -11.720256,-8.5963 -18.439454,-16.83985 -6.694104,-8.21275 -12.06088,-18.92634 -9.875,-31.16406 L 53.476489,89.703125 C 44.832259,83.918969 39.496333,76.01502 37.956958,67.369141 c -1.584877,-8.90145 0.857241,-18.511653 7.464844,-27.25 C 58.637008,22.642445 88.324343,8.5 136.64837,8.5 Z m 0,3 c -47.736775,0 -76.457789,14.06318 -88.832037,30.427734 -6.187124,8.182278 -8.333385,16.900525 -6.90625,24.916016 1.413586,7.939389 6.349417,15.256755 14.712891,20.6875 a 1.50015,1.50015 0 0 1 0.927734,1.439453 1.5002301,1.5002301 0 0 1 -0.0059,0.101563 1.5002301,1.5002301 0 0 1 -0.0078,0.08984 v 0.002 L 41.322193,259.74023 a 1.50015,1.50015 0 0 1 -0.01758,0.13672 c -2.042644,11.15682 2.819745,21.0021 9.230468,28.86719 6.410724,7.86509 14.275962,13.58322 17.921875,16.33984 -0.05262,-0.0398 0.321544,0.17927 0.865235,0.37891 0.54369,0.19964 1.291688,0.43543 2.197265,0.69141 1.811155,0.51195 4.257404,1.1081 7.125,1.74804 5.735193,1.27988 13.162206,2.73584 20.744141,4.10352 7.581933,1.36768 15.322753,2.64731 21.689443,3.57617 6.36672,0.92886 11.48276,1.49606 13.32813,1.47266 1.93323,-0.0246 6.66229,-0.53409 12.52539,-1.32813 5.8631,-0.79404 12.93755,-1.86776 19.88477,-3.00976 6.94721,-1.14201 13.76878,-2.35368 19.12109,-3.41797 2.67615,-0.53215 4.98709,-1.02648 6.74805,-1.45508 1.76096,-0.4286 3.06776,-0.86119 3.30859,-0.98242 4.51887,-2.27463 13.58165,-7.06059 20.99024,-14.16797 7.40855,-7.10738 13.08597,-16.34127 11.36132,-27.86328 a 1.50015,1.50015 0 0 1 -0.0117,-0.0937 l -15,-175.000002 a 1.50015,1.50015 0 0 1 0.17579,-0.886719 1.50015,1.50015 0 0 1 0.72656,-1.154297 c 8.40756,-5.449431 13.58175,-12.862479 15.27734,-20.898437 1.69559,-8.035958 -0.0628,-16.743543 -5.82422,-24.908203 C 212.16656,25.559351 184.38514,11.5 136.64837,11.5 Z m 0,8.5 c 46.07289,0 70.93732,13.810468 80.0957,26.789062 4.57919,6.489298 5.64353,12.612187 4.45313,18.253907 -1.19041,5.64172 -4.80138,11.123327 -11.58399,15.519531 a 10.001,10.001 0 0 0 -4.64062,7.205078 10.001,10.001 0 0 0 -0.0215,0.126953 10.001,10.001 0 0 0 -0.002,0.02148 10.001,10.001 0 0 0 -0.084,2.544922 l 15,174.999997 a 10.001,10.001 0 0 0 0.004,0.0527 c 0.79319,8.71532 -3.16628,15.11993 -9.32422,21.03516 -6.15794,5.91523 -13.94734,10.14829 -18.69922,12.83398 1.54213,-0.8716 0.24871,-0.14139 -1.14648,0.2461 -1.39519,0.38747 -3.41488,0.88234 -5.79688,1.41406 -4.76399,1.06344 -11.01727,2.29064 -17.5332,3.44141 -13.03186,2.30151 -27.92784,4.24655 -32.5957,4.27734 -7.95941,0.0525 -59.139925,-10.42674 -60.035162,-10.65039 0.02661,0.007 -3.020008,-1.25911 -6.130859,-3.52735 -3.110851,-2.26824 -6.676124,-5.47704 -9.798828,-9.17969 -6.245409,-7.40528 -10.274316,-16.27224 -9.085938,-24.33985 a 10.001,10.001 0 0 0 0.06641,-0.56836 L 64.874927,91.365234 A 10.001,10.001 0 0 0 64.355396,85.125 10.001,10.001 0 0 0 64.197193,84.746094 10.001,10.001 0 0 0 64.154224,84.65625 10.001,10.001 0 0 0 59.238208,79.722656 C 53.211292,75.511241 50.198007,70.524822 49.277271,65.353516 48.297073,59.848245 49.599864,53.661431 54.59563,47.054688 64.587162,33.8412 90.575474,20 136.64837,20 Z"
   transform="translate(-26.55384,2.4218794)"
   inkscape:export-xdpi="156.17"
   inkscape:export-ydpi="156.17" /><path
   style="color:#000000;font-style:normal;font-variant:normal;font-weight:normal;font-stretch:normal;font-size:medium;line-height:normal;font-family:sans-serif;font-variant-ligatures:normal;font-variant-position:normal;font-variant-caps:normal;font-variant-numeric:normal;font-variant-alternates:normal;font-feature-settings:normal;text-indent:0;text-align:start;text-decoration:none;text-decoration-line:none;text-decoration-style:solid;text-decoration-color:#000000;letter-spacing:normal;word-spacing:normal;text-transform:none;writing-mode:lr-tb;direction:ltr;text-orientation:mixed;dominant-baseline:auto;baseline-shift:baseline;text-anchor:start;white-space:normal;shape-padding:0;clip-rule:nonzero;display:inline;overflow:visible;visibility:visible;opacity:1;isolation:auto;mix-blend-mode:normal;color-interpolation:sRGB;color-interpolation-filters:linearRGB;solid-color:#000000;solid-opacity:1;vector-effect:none;fill:#000000;fill-opacity:1;fill-rule:nonzero;stroke:none;stroke-width:20;stroke-linecap:round;stroke-linejoin:round;stroke-miterlimit:4;stroke-dasharray:none;stroke-dashoffset:0;stroke-opacity:1;marker:none;paint-order:stroke fill markers;color-rendering:auto;image-rendering:auto;shape-rendering:auto;text-rendering:auto;enable-background:accumulate"
   d="m 88.27421,34.029301 a 10.001,10.001 0 1 0 0,20 10.001,10.001 0 1 0 0,-20 z"
   id="path4577"
   inkscape:connector-curvature="0"
   inkscape:export-xdpi="156.17"
   inkscape:export-ydpi="156.17" /><path
   style="color:#000000;font-style:normal;font-variant:normal;font-weight:normal;font-stretch:normal;font-size:medium;line-height:normal;font-family:sans-serif;font-variant-ligatures:normal;font-variant-position:normal;font-variant-caps:normal;font-variant-numeric:normal;font-variant-alternates:normal;font-feature-settings:normal;text-indent:0;text-align:start;text-decoration:none;text-decoration-line:none;text-decoration-style:solid;text-decoration-color:#000000;letter-spacing:normal;word-spacing:normal;text-transform:none;writing-mode:lr-tb;direction:ltr;text-orientation:mixed;dominant-baseline:auto;baseline-shift:baseline;text-anchor:start;white-space:normal;shape-padding:0;clip-rule:nonzero;display:inline;overflow:visible;visibility:visible;opacity:1;isolation:auto;mix-blend-mode:normal;color-interpolation:sRGB;color-interpolation-filters:linearRGB;solid-color:#000000;solid-opacity:1;vector-effect:none;fill:#000000;fill-opacity:1;fill-rule:nonzero;stroke:none;stroke-width:20;stroke-linecap:round;stroke-linejoin:round;stroke-miterlimit:4;stroke-dasharray:none;stroke-dashoffset:0;stroke-opacity:1;marker:none;paint-order:stroke fill markers;color-rendering:auto;image-rendering:auto;shape-rendering:auto;text-rendering:auto;enable-background:accumulate"
   d="m 128.27421,34.029301 a 10.001,10.001 0 1 0 0,20 10.001,10.001 0 1 0 0,-20 z"
   id="path4579"
   inkscape:connector-curvature="0"
   inkscape:export-xdpi="156.17"
   inkscape:export-ydpi="156.17" /><path
   style="color:#000000;font-style:normal;font-variant:normal;font-weight:normal;font-stretch:normal;font-size:medium;line-height:normal;font-family:sans-serif;font-variant-ligatures:normal;font-variant-position:normal;font-variant-caps:normal;font-variant-numeric:normal;font-variant-alternates:normal;font-feature-settings:normal;text-indent:0;text-align:start;text-decoration:none;text-decoration-line:none;text-decoration-style:solid;text-decoration-color:#000000;letter-spacing:normal;word-spacing:normal;text-transform:none;writing-mode:lr-tb;direction:ltr;text-orientation:mixed;dominant-baseline:auto;baseline-shift:baseline;text-anchor:start;white-space:normal;shape-padding:0;clip-rule:nonzero;display:inline;overflow:visible;visibility:visible;opacity:1;isolation:auto;mix-blend-mode:normal;color-interpolation:sRGB;color-interpolation-filters:linearRGB;solid-color:#000000;solid-opacity:1;vector-effect:none;fill:#000000;fill-opacity:1;fill-rule:nonzero;stroke:none;stroke-width:12;stroke-linecap:round;stroke-linejoin:round;stroke-miterlimit:4;stroke-dasharray:none;stroke-dashoffset:0;stroke-opacity:1;marker:none;paint-order:stroke fill markers;color-rendering:auto;image-rendering:auto;shape-rendering:auto;text-rendering:auto;enable-background:accumulate"
   d="m 135.30156,107.92565 c 19.12197,0.0889 37.79753,-3.16219 55.93665,-9.634634 3.18556,-1.06757 4.87401,-4.542373 3.74472,-7.706579 -1.1293,-3.164207 -4.63626,-4.784792 -7.77792,-3.594203 -16.90771,6.033055 -34.16608,9.080333 -51.90345,8.990658 -17.73737,0.08967 -34.99574,-2.957603 -51.903452,-8.990658 -3.141659,-1.190589 -6.648624,0.429996 -7.777916,3.594203 -1.129291,3.164206 0.559152,6.639009 3.744716,7.706579 18.139116,6.472444 36.814682,9.723584 55.936652,9.634634 z"
   id="path4575-3"
   inkscape:connector-curvature="0"
   inkscape:path-effect="#path-effect845"
   inkscape:original-d="m 79.441333,86.037109 a 6.0006,6.0006 0 0 0 -2.125,11.699219 C 116.94088,111.2946 155.15116,111.16769 191.23821,98.291016 a 6.0006,6.0006 0 1 0 -4.0332,-11.300782 C 153.59236,98.983988 118.59387,99.177441 81.201099,86.382812 a 6.0006,6.0006 0 0 0 -1.759766,-0.345703 z"
   transform="translate(-26.55384,2.4218794)"
   inkscape:export-xdpi="156.17"
   inkscape:export-ydpi="156.17" /><path
   style="color:#000000;display:inline;overflow:visible;visibility:visible;opacity:1;fill:#ff0000;fill-opacity:1;stroke:#0d0000;stroke-width:12;stroke-linecap:round;stroke-linejoin:bevel;stroke-miterlimit:4;stroke-dasharray:none;stroke-dashoffset:0;stroke-opacity:1;marker:none;paint-order:stroke fill markers;enable-background:accumulate"
   d="m 108.32431,128.92187 v 59.82388"
   id="path904"
   inkscape:connector-curvature="0"
   inkscape:export-xdpi="156.17"
   inkscape:export-ydpi="156.17" /><path
   style="color:#000000;display:inline;overflow:visible;visibility:visible;opacity:1;fill:#ff0000;fill-opacity:1;stroke:#0d0000;stroke-width:12;stroke-linecap:round;stroke-linejoin:bevel;stroke-miterlimit:4;stroke-dasharray:none;stroke-dashoffset:0;stroke-opacity:1;marker:none;paint-order:stroke fill markers;enable-background:accumulate"
   d="M 108.29001,291.9062 V 256.78025"
   id="path906"
   inkscape:connector-curvature="0"
   inkscape:export-xdpi="156.17"
   inkscape:export-ydpi="156.17" /><path
   transform="matrix(1,0,0,1.0200875,-27.233418,-3.8492606)"
   style="color:#000000;font-style:normal;font-variant:normal;font-weight:normal;font-stretch:normal;font-size:medium;line-height:normal;font-family:sans-serif;font-variant-ligatures:normal;font-variant-position:normal;font-variant-caps:normal;font-variant-numeric:normal;font-variant-alternates:normal;font-feature-settings:normal;text-indent:0;text-align:start;text-decoration:none;text-decoration-line:none;text-decoration-style:solid;text-decoration-color:#000000;letter-spacing:normal;word-spacing:normal;text-transform:none;writing-mode:lr-tb;direction:ltr;text-orientation:mixed;dominant-baseline:auto;baseline-shift:baseline;text-anchor:start;white-space:normal;shape-padding:0;clip-rule:nonzero;display:inline;overflow:visible;visibility:visible;opacity:1;isolation:auto;mix-blend-mode:normal;color-interpolation:sRGB;color-interpolation-filters:linearRGB;solid-color:#000000;solid-opacity:1;vector-effect:none;fill:#000000;fill-opacity:1;fill-rule:nonzero;stroke:none;stroke-width:12.5734787;stroke-linecap:round;stroke-linejoin:round;stroke-miterlimit:4;stroke-dasharray:none;stroke-dashoffset:0;stroke-opacity:1;marker:none;paint-order:stroke fill markers;color-rendering:auto;image-rendering:auto;shape-rendering:auto;text-rendering:auto;enable-background:accumulate"
   d="m 179.55462,120.0625 c -3.75449,-0.0824 -6.76002,3.09366 -6.47071,6.83789 l 9.56446,151.33984 c 0.17273,3.53848 3.20744,6.25134 6.74308,6.02794 3.53564,-0.2234 6.20476,-3.29664 5.93075,-6.82872 l -9.56446,-151.33984 c -0.16349,-3.3282 -2.87171,-5.96394 -6.20312,-6.03711 z m -87.146966,0 c 3.754489,-0.0824 6.760024,3.09366 6.47071,6.83789 l -9.56446,151.33984 c -0.172734,3.53848 -3.20744,6.25134 -6.743081,6.02794 -3.535642,-0.2234 -6.20476,-3.29664 -5.930749,-6.82872 l 9.56446,-151.33984 c 0.163489,-3.3282 2.871713,-5.96394 6.20312,-6.03711 z"
   id="path4571"
   inkscape:connector-curvature="0"
   inkscape:path-effect="#path-effect847-7"
   inkscape:original-d="m 179.55462,120.0625 a 6.3502028,6.3502028 0 0 0 -6.47071,6.83789 l 9.56446,151.33984 a 6.3502028,6.3502028 0 1 0 12.67383,-0.80078 l -9.56446,-151.33984 a 6.3502028,6.3502028 0 0 0 -6.20312,-6.03711 z" /><path
   style="color:#000000;display:inline;overflow:visible;visibility:visible;opacity:1;fill:none;fill-opacity:1;stroke:none;stroke-width:0.2;stroke-linecap:round;stroke-linejoin:bevel;stroke-miterlimit:4;stroke-dasharray:none;stroke-dashoffset:0;stroke-opacity:1;marker:none;paint-order:stroke fill markers;enable-background:accumulate"
   d="m 61.195987,237.24133 c 22.339558,3.08812 48.643483,5.42112 74.105573,5.95941 25.46209,-0.53829 51.76601,-2.87129 74.10557,-5.95941"
   id="path914"
   inkscape:connector-curvature="0"
   inkscape:path-effect="#path-effect916"
   inkscape:original-d="m 61.195987,237.24133 c 46.651653,6.44891 110.591853,9.60476 148.050383,0"
   sodipodi:nodetypes="cc"
   transform="translate(-26.55384,2.4218794)"
   inkscape:export-xdpi="156.17"
   inkscape:export-ydpi="156.17" /><path
   style="fill:#800080;stroke-width:1"
   d="m 76.3577,164.91328 c -0.76065,-0.004 -1.59853,0.11668 -2.56201,0.35466 -1.71853,0.42447 -3.000559,1.04966 -3.894589,1.96099 -0.89403,0.91132 -1.30288,2.11087 -1.32075,3.26085 -0.0357,2.29994 1.11456,4.51788 2.14939,6.7369 1.034819,2.21903 1.977259,4.41518 2.003939,6.05685 0.0134,0.82084 -0.15415,1.48269 -0.61048,2.12971 -0.45634,0.64702 -1.252609,1.30802 -2.624579,1.90244 -5.206308,2.25573 -8.718963,2.73013 -11.068224,2.36903 -2.349263,-0.36111 -3.632582,-1.47455 -4.645441,-2.86487 -1.012858,-1.39031 -1.619887,-3.0476 -2.457161,-4.40059 -0.418638,-0.67649 -0.930466,-1.35369 -1.792562,-1.69585 -0.862096,-0.34216 -1.882492,-0.14968 -2.776779,0.37188 -0.878949,0.51262 -1.563531,1.18484 -1.77396,2.09872 -0.210429,0.91388 0.137987,1.75227 0.561444,2.38107 0.846914,1.25763 2.163843,2.24548 3.282417,3.34349 1.118574,1.09801 1.93578,2.20939 2.046225,3.13 0.110445,0.92062 -0.241916,2.0398 -2.431795,3.72054 -3.255547,2.49864 -5.190673,2.80031 -6.412635,2.41551 -1.221962,-0.3848 -2.185952,-1.66838 -3.057501,-3.34521 -0.871549,-1.67683 -1.517609,-3.58737 -2.736193,-4.94809 -0.609293,-0.68036 -1.529161,-1.25359 -2.580613,-1.19829 -1.051451,0.0553 -2.00902,0.62574 -3.006768,1.55812 -0.886961,0.82885 -1.455393,1.77042 -1.572719,2.78394 -0.117326,1.01353 0.235839,1.95595 0.7407,2.72369 1.009723,1.53547 2.642273,2.69903 4.158405,3.89787 1.516132,1.19883 2.89203,2.42333 3.399102,3.41236 0.253536,0.49451 0.320942,0.87476 0.233372,1.31708 -0.08757,0.44231 -0.370871,1.01677 -1.094139,1.74061 -1.158699,1.1596 -2.161612,1.44932 -3.263816,1.45308 -1.102202,0.004 -2.309178,-0.3702 -3.532699,-0.76269 -1.223521,-0.3925 -2.467158,-0.86481 -3.862462,-0.59398 -0.697652,0.13541 -1.40665,0.51891 -1.939687,1.12425 -0.533037,0.60534 -0.907261,1.39006 -1.18884,2.36902 -0.263031,0.91448 -0.0899,2.01647 0.549606,2.66344 0.639505,0.64695 1.422356,0.83699 2.220408,0.94519 1.596106,0.21642 3.512975,0.005 5.391214,-0.17217 2.395937,-1.04472 5.493031,-0.52311 5.162916,0.21177 -0.829419,2.14848 -1.884064,3.04975 -3.091324,3.54664 -1.207259,0.4969 -2.663459,0.52375 -4.131346,0.44764 -1.467888,-0.0761 -2.891507,-0.31798 -4.293693,0.13773 -0.701093,0.22787 -1.420541,0.73888 -1.816237,1.5013 -0.395696,0.76243 -0.48725,1.65414 -0.399099,2.69442 0.0974,1.14937 0.806503,2.20611 1.751976,2.61866 0.945472,0.41256 1.93738,0.36275 2.981401,0.18767 0.597186,-0.10015 9.607657,-3.71003 10.757534,-1.53898 2.93195,5.53573 -9.432742,2.50144 -10.047273,3.79642 -0.465333,0.66362 -0.592332,1.51835 -0.426157,2.38132 0.131152,0.68106 0.407657,1.29058 0.899664,1.74526 0.492007,0.45469 1.153994,0.67767 1.750284,0.73379 1.19258,0.11226 2.270479,-0.22556 3.383882,-0.51504 1.113404,-0.28948 2.235617,-0.56691 3.192789,-0.59262 4.195088,-0.39273 6.723761,3.30158 6.576672,6.80942 -0.349001,1.29449 -2.065706,2.50246 -4.395158,3.56042 -2.329453,1.05797 -5.032194,1.91176 -6.955478,3.2884 -0.961641,0.68832 -1.812982,1.60032 -2.024241,2.85798 -0.211258,1.25766 0.295069,2.56344 1.308909,3.83588 1.151138,1.44477 2.227991,2.4049 3.368662,2.93202 1.140672,0.52712 2.364189,0.53498 3.387265,0.13945 2.046151,-0.79105 3.387528,-2.71667 4.855136,-4.60547 1.467608,-1.88881 3.000743,-3.79963 4.746906,-4.84307 1.746162,-1.04344 3.639029,-1.39241 6.536085,-0.0723 1.897222,0.8645 2.893725,1.73247 3.301019,2.40345 0.407293,0.67098 0.407944,1.17483 0.09639,1.97992 -0.623103,1.61019 -2.966266,3.88638 -5.514663,6.15326 -2.548397,2.26688 -5.275069,4.55765 -6.612184,7.21382 -0.668558,1.32808 -0.963736,2.8614 -0.46167,4.34206 0.502066,1.48065 1.699586,2.76009 3.558066,3.90474 0.05719,0.0359 0.117134,0.067 0.179256,0.093 3.772049,1.54285 6.849936,0.74722 8.98141,-1.2396 2.131473,-1.98682 3.517647,-4.89378 5.052994,-7.70965 1.535346,-2.81587 3.184941,-5.52654 5.433491,-7.21897 2.248547,-1.69243 5.085416,-2.52078 9.583436,-1.47203 2.18178,0.50869 3.67858,1.122 4.62008,1.73544 0.9415,0.61345 1.31916,1.17407 1.48647,1.72512 0.33463,1.10208 -0.28502,2.75466 -1.37486,4.62441 -1.08983,1.86975 -2.52851,3.77554 -3.07441,5.8382 -0.27295,1.03132 -0.27934,2.22103 0.323,3.24362 0.60233,1.0226 1.67326,1.73497 3.13867,2.2399 1.04763,0.36099 2.12302,0.37065 2.95604,-0.14978 0.83301,-0.52043 1.23555,-1.34454 1.52706,-2.16243 0.58302,-1.63577 0.82844,-3.61446 1.55919,-5.5369 0.73074,-1.92243 1.84908,-3.72799 4.15502,-5.06171 2.30594,-1.33372 5.90155,-2.19801 11.61613,-1.81637 1.89819,0.12677 3.14043,0.60718 3.97916,1.26027 0.83871,0.65308 1.33756,1.50487 1.64374,2.63588 0.61235,2.26202 0.24599,5.57732 -0.25028,8.91482 -0.49628,3.3375 -1.12932,6.66664 -0.55806,9.45199 0.28562,1.39267 0.95428,2.71139 2.16798,3.54665 1.2137,0.83525 2.82561,1.13481 4.83484,0.96757 1.97664,-0.16451 3.49213,-0.74216 4.48986,-1.81808 0.99773,-1.07592 1.31988,-2.526 1.26494,-3.95813 -0.10987,-2.86425 -1.49423,-6.06427 -2.7548,-9.27982 -1.26056,-3.21555 -2.38891,-6.42476 -2.32694,-8.63074 0.031,-1.10299 0.29859,-1.90146 0.90304,-2.55497 0.60445,-0.65349 1.64224,-1.22672 3.42955,-1.53057 3.00698,-0.51118 6.37316,-0.36261 7.91977,0.6419 1.54662,1.00448 3.32325,2.19615 4.5822,3.93289 1.25895,1.73672 0.51768,4.39384 2.41687,5.7587 1.89919,1.36486 4.42298,2.0997 7.67758,1.5805 1.47371,-0.23511 2.5529,-0.58445 3.37542,-1.21034 0.82253,-0.6259 1.27565,-1.6683 1.22944,-2.5894 -0.0924,-1.84219 -1.28879,-3.2415 -2.32189,-4.71738 -1.03308,-1.47588 -1.95842,-2.97048 -2.0868,-3.87376 -0.0642,-0.45165 -0.0189,-0.7053 0.23168,-1.04678 0.25055,-0.34148 0.8086,-0.79187 1.89403,-1.20862 4.68052,-1.79711 8.07605,-1.28488 11.04454,0.34606 2.96849,1.63094 5.4879,4.51225 7.86867,7.5547 2.38077,3.04245 4.59803,6.22624 7.25818,8.37766 2.66015,2.15142 6.02801,3.14877 9.76946,1.47375 2.19568,-0.98298 3.6064,-2.11901 3.87599,-3.76874 0.26959,-1.64973 -0.76555,-3.00633 -2.0513,-4.13029 -2.57149,-2.24793 -6.93629,-4.28795 -11.04962,-6.4029 -4.11333,-2.11496 -7.94445,-4.43273 -8.97464,-6.01036 -0.25755,-0.39441 -0.34033,-0.68973 -0.3416,-0.91938 -8.7e-4,-0.22964 0.0543,-0.45534 0.33314,-0.81263 0.54975,-0.7044 2.09907,-1.72982 4.86021,-2.72885 7.4666,-1.42401 10.25502,0.92571 12.29089,3.31078 1.02231,1.19767 1.7421,2.45931 2.85964,3.38308 0.55877,0.46189 1.30629,0.83583 2.14431,0.82813 0.83801,-0.008 1.64226,-0.36038 2.44363,-0.94176 0.17513,-0.12676 0.31498,-0.2976 0.40586,-0.49584 0.53402,-1.16584 0.56016,-2.43199 0.18095,-3.51738 -0.3792,-1.08538 -1.08878,-1.99884 -1.94138,-2.83903 -1.70519,-1.68039 -4.05475,-3.12187 -6.27227,-4.57276 -2.21751,-1.45091 -4.29177,-2.9247 -5.34387,-4.28353 -0.52604,-0.67942 -0.78846,-1.28759 -0.83201,-1.85597 -0.0427,-0.55702 0.11005,-1.15865 0.65276,-1.9472 0.69995,-0.82194 1.38611,-1.20074 2.16968,-1.34808 0.80131,-0.15066 1.74647,-0.0394 2.80891,0.3099 2.12486,0.69865 4.62132,2.3465 7.0079,3.95813 2.38657,1.61163 4.60395,3.21064 6.81173,3.68782 1.10389,0.2386 2.35001,0.12204 3.29595,-0.66112 0.94594,-0.78316 1.46926,-2.01264 1.75366,-3.63101 0.21444,-1.22021 -0.30652,-2.41972 -1.10259,-3.20575 -0.79608,-0.78602 -1.82734,-1.32313 -2.99832,-1.80431 -2.34193,-0.96238 -5.29883,-1.65183 -7.98534,-2.4379 -2.68653,-0.78606 -5.08515,-1.74584 -6.06597,-2.70646 -0.49041,-0.48031 -0.64455,-0.82917 -0.62063,-1.33603 0.0239,-0.50685 0.31669,-1.31098 1.20913,-2.40172 3.99306,-4.88037 8.61332,-5.05133 12.1742,-5.06689 0.89022,-0.004 1.70526,0.01 2.45378,-0.0448 0.74852,-0.0544 1.46069,-0.13645 2.14769,-0.61464 0.68701,-0.47818 1.07603,-1.47789 1.00113,-2.35181 -0.0749,-0.87391 -0.41071,-1.76002 -0.969,-2.90101 -0.59422,-1.21445 -1.51919,-2.08126 -2.61274,-2.33804 -1.09355,-0.25677 -2.14219,0.0503 -3.11161,0.51651 -1.93885,0.93241 -3.83477,2.62801 -5.70238,4.02183 -1.86761,1.39382 -3.66625,2.35752 -4.76551,2.28982 -0.54963,-0.0339 -0.98849,-0.21348 -1.53721,-0.85051 -0.54871,-0.63702 -1.14561,-1.7784 -1.65219,-3.57418 -0.58181,-2.06244 -0.25053,-2.84205 0.37203,-3.46918 0.62257,-0.62713 1.88572,-1.0878 3.3247,-1.44104 1.43898,-0.35324 2.98393,-0.5781 4.29031,-1.34807 0.65319,-0.38499 1.28431,-0.98717 1.56595,-1.83014 0.28164,-0.84297 0.1819,-1.78385 -0.17587,-2.74951 -0.23687,-0.63935 -0.48372,-1.15379 -0.94871,-1.57705 -0.46498,-0.42326 -1.22525,-0.59196 -1.75197,-0.48896 -1.05345,0.20601 -1.553,0.75443 -2.24747,1.12425 -0.69446,0.36983 -1.42615,0.64855 -2.46223,0.57332 -1.03609,-0.0752 -2.435,-0.5305 -4.33428,-1.90933 -1.38446,-1.00509 -2.01442,-1.85128 -2.20519,-2.39141 -0.19077,-0.54012 -0.12921,-0.85094 0.25536,-1.4221 0.76912,-1.14231 3.15668,-2.64043 5.82751,-4.0993 2.67084,-1.45888 5.60362,-2.95736 7.63699,-4.92571 1.01668,-0.98418 1.83467,-2.12449 2.13755,-3.495 0.30287,-1.3705 0.0104,-2.8933 -0.87937,-4.3455 -0.85077,-1.38854 -1.98407,-2.3035 -3.28581,-2.47232 -1.30172,-0.16881 -2.51043,0.36479 -3.62571,1.14319 -2.23053,1.5568 -4.41479,4.27696 -6.82863,7.11223 -2.41385,2.83528 -5.01457,5.77562 -7.6742,7.68038 -2.65962,1.90478 -5.21377,2.76416 -7.96844,1.8422 -1.614,-0.54019 -2.32891,-1.15794 -2.52819,-1.51164 -0.19928,-0.3537 -0.19465,-0.63731 0.19786,-1.34634 0.78502,-1.41807 3.29778,-3.55203 6.02368,-5.5765 2.7259,-2.02448 5.63685,-4.00798 7.45097,-5.91395 0.90706,-0.95298 1.66394,-1.89785 1.68771,-3.19714 0.0119,-0.64965 -0.25631,-1.34017 -0.70181,-1.83187 -0.44548,-0.49169 -1.01973,-0.82566 -1.708,-1.0967 -2.5633,-1.00945 -5.28368,-0.26481 -7.91433,1.11393 -2.63064,1.37873 -5.30562,3.43585 -8.04623,5.49385 -5.48122,4.116 -11.14492,8.04679 -16.17871,7.14495 -1.43417,-0.25695 -2.22704,-0.68239 -2.60598,-1.05711 -0.37894,-0.37473 -0.48423,-0.70833 -0.45998,-1.32569 0.0485,-1.23472 1.0598,-3.34013 2.18658,-5.46976 1.12679,-2.12962 2.38187,-4.27767 2.39798,-6.52858 0.008,-1.12545 -0.42884,-2.32984 -1.37824,-3.15238 -0.9494,-0.82255 -2.26948,-1.29388 -4.04172,-1.54091 -3.22607,-0.44964 -5.57409,0.32924 -7.12628,1.81293 -1.5522,1.4837 -2.30766,3.44992 -3.05411,5.26316 -0.74647,1.81323 -1.47522,3.48037 -2.60599,4.59514 -1.13076,1.11477 -2.65835,1.83938 -5.5637,1.68379 -1.62706,-0.0871 -2.68501,-0.36765 -3.27565,-0.67317 -0.59064,-0.30552 -0.73411,-0.54724 -0.83372,-0.89183 -0.19919,-0.68916 0.21457,-2.22535 0.79144,-3.89958 0.57687,-1.67424 1.36706,-3.59139 0.41939,-5.45254 -0.47383,-0.93058 -1.40013,-1.62429 -2.59921,-2.00747 -1.19909,-0.38319 -2.71709,-0.53082 -4.74522,-0.47174 -1.90756,0.0555 -3.35784,0.39776 -4.45773,1.12425 -1.09988,0.7265 -1.73717,1.88503 -1.91263,3.05081 -0.3509,2.33154 0.61935,4.74954 1.45942,7.11223 0.84008,2.36268 1.56313,4.67017 1.40361,5.9897 -0.0797,0.65976 -0.26627,1.04235 -0.77452,1.42038 -0.50825,0.37802 -1.45699,0.73055 -3.04059,0.82984 -7.77588,0.48756 -12.27813,-0.63393 -14.7768,-2.32942 -2.49866,-1.69549 -3.24432,-3.96296 -3.45659,-6.58024 -0.21229,-2.61727 0.24764,-5.43593 0.18432,-7.83705 -0.0317,-1.20056 -0.17672,-2.3605 -0.85907,-3.35037 -0.68236,-0.98988 -1.92823,-1.55485 -3.35345,-1.56156 z"
   id="path2854"
   inkscape:connector-curvature="0"
   sodipodi:nodetypes="ccssscscsscccscsscsscccscsccccssscccccsccssccsccsssccccscsssccscsccccssscccsccccsccscsscccsccccscccccccccsccscccccccccccccsscsccccscssccsccccsccccccscscccccccccccsccscscsccccsccsccscccccscccscscccccccccccscccc" /><path
   sodipodi:type="inkscape:offset"
   inkscape:radius="1.3992773"
   inkscape:original="M 79.5625 194.7168 C 72.690066 195.18187 67.794513 199.86461 67.208984 205.1875 C 66.917696 207.83553 68.83412 208.84273 70.050781 208.97656 C 71.553716 209.14189 73.334253 208.10547 73.554688 206.10156 C 73.649159 205.24274 73.393694 204.273 72.804688 203.70117 C 74.240354 200.52712 77.8489 198.67833 81.785156 199.11133 C 87.653757 199.75689 92.802169 203.65511 92.109375 209.95312 C 91.558289 214.96291 87.594004 218.72982 82.4375 222.14648 L 65.15625 233.7168 C 64.449154 234.21849 63.981311 234.52929 63.871094 235.53125 C 63.627041 237.74987 65.415454 237.9463 66.560547 238.07227 L 90.822266 240.74219 C 93.184019 241.00199 93.755887 240.41323 94.007812 238.12305 L 94.212891 236.26172 C 94.362471 234.90192 94.534885 233.32822 92.101562 233.06055 C 89.596672 232.785 89.446997 234.14453 89.226562 236.14844 L 72.193359 234.27344 C 76.817395 231.08794 84.279532 226.47733 87.671875 223.95312 C 92.621547 220.44128 96.417062 216.22351 97.046875 210.49805 C 97.991594 201.90985 91.354379 195.74562 82.623047 194.78516 C 81.567414 194.66903 80.544276 194.65036 79.5625 194.7168 z M 189.78125 194.83789 C 188.89479 194.76465 188.0198 194.78151 187.16992 194.875 C 179.22584 195.74887 172.65092 202.48477 173.60352 211.14453 C 174.501 219.30332 181.49858 224.97927 189.37109 224.11328 C 193.09265 223.7039 196.68033 222.07959 199.57812 218.79102 C 199.83865 227.74421 195.03657 235.44344 188.16602 236.19922 C 187.5219 236.27007 184.93749 236.48172 183.30859 235.50195 C 183.5555 235.11262 183.86626 234.64244 183.73242 233.42578 C 183.54348 231.70814 182.0971 230.41836 180.23633 230.62305 C 178.44712 230.81986 177.15054 232.19475 177.38672 234.3418 C 177.63864 236.63198 179.48574 241.57215 188.64648 240.56445 C 198.0935 239.52526 205.9123 229.60998 204.35352 215.43945 C 202.69337 200.34749 195.9865 195.35061 189.78125 194.83789 z M 153.16797 197.70117 C 152.23326 197.75032 151.89239 198.12868 151.21875 199.0293 C 148.64154 202.1209 144.33621 202.49128 142.83008 202.64258 C 141.82725 202.76741 140.77815 203.39865 140.86133 204.98047 C 140.97475 207.13749 142.91698 207.03611 143.49219 207.00586 C 145.50541 206.9 148.63785 206.15837 150.73438 204.89453 L 152.48438 238.18359 L 145.94141 238.52734 C 144.791 238.58784 143.06639 238.67928 143.18359 240.9082 C 143.29702 243.06522 145.09337 242.97078 146.17188 242.91406 L 164.21875 241.96484 C 165.29726 241.90813 167.09585 241.81327 166.98242 239.65625 C 166.86522 237.42733 165.13869 237.51958 163.98828 237.58008 L 157.44531 237.92383 L 155.48047 200.53516 C 155.41998 199.38475 155.32499 197.58775 153.16797 197.70117 z M 118.70508 197.76758 C 103.46214 196.96604 102.51711 214.9401 102.26758 219.68555 C 102.01426 224.50289 101.06956 242.47776 116.3125 243.2793 C 131.55544 244.08084 132.50046 226.10677 132.75 221.36133 C 133.00332 216.54398 133.94802 198.56912 118.70508 197.76758 z M 187.65039 199.24023 C 190.72783 198.90171 192.9123 200.32741 194.21484 201.63281 C 196.2481 203.65461 197.74681 206.74985 198.16406 210.54297 C 198.59706 214.47923 195.18236 218.98329 189.24219 219.63672 C 183.44516 220.2744 179.12359 215.89762 178.54102 210.60156 C 177.85609 204.37512 182.49747 199.80707 187.65039 199.24023 z M 118.47461 202.15234 C 128.7564 202.693 128.03412 216.42632 127.82617 220.38086 C 127.62579 224.19159 126.82476 239.43519 116.54297 238.89453 C 106.26117 238.35387 107.06133 223.10956 107.26172 219.29883 C 107.46967 215.34429 108.19281 201.61168 118.47461 202.15234 z "
   style="font-style:normal;font-variant:normal;font-weight:normal;font-stretch:normal;font-size:10.66666698px;line-height:6.08503914px;font-family:cmr10;-inkscape-font-specification:cmr10;text-align:center;letter-spacing:0px;word-spacing:0px;text-anchor:middle;fill:#ffffff;fill-opacity:1;stroke:none;stroke-width:1.1446445px;stroke-linecap:butt;stroke-linejoin:miter;stroke-opacity:1"
   id="text922"
   d="m 79.46875,193.32031 c -7.459057,0.50477 -12.981925,5.638 -13.650391,11.71485 -0.18422,1.6747 0.380881,3.09657 1.251953,3.97461 0.871073,0.87803 1.919942,1.25752 2.828126,1.35742 2.254122,0.24796 4.742626,-1.34745 5.046874,-4.11328 0.09311,-0.84643 -0.123066,-1.69153 -0.517578,-2.48047 1.312958,-2.23467 4.041414,-3.6195 7.205078,-3.27149 2.674224,0.29417 5.148864,1.34083 6.810547,2.92383 1.661684,1.58301 2.577165,3.63166 2.275391,6.375 -0.479673,4.3606 -4.017675,7.8422 -9.054688,11.17969 a 1.3994173,1.3994173 0 0 0 -0.0059,0.004 l -17.28125,11.57031 a 1.3994173,1.3994173 0 0 0 -0.03125,0.0215 c -0.345984,0.24548 -0.747844,0.50162 -1.134765,0.97071 -0.386922,0.46908 -0.653552,1.13278 -0.730469,1.83203 -0.163137,1.48303 0.543999,2.82746 1.484375,3.40234 0.940375,0.57488 1.870937,0.61867 2.443359,0.68164 l 24.261719,2.66992 c 1.307274,0.14381 2.500426,0.12701 3.445312,-0.67969 0.944887,-0.80669 1.146083,-1.93121 1.283204,-3.17773 l 0.205078,-1.86133 c 0.07482,-0.68013 0.251684,-1.62232 -0.181641,-2.68945 -0.433325,-1.06713 -1.651479,-1.88787 -3.167969,-2.05469 -0.752041,-0.0827 -1.423584,-0.0616 -2.058594,0.14453 -0.635009,0.20614 -1.20124,0.6431 -1.544921,1.14844 -0.372058,0.54707 -0.538311,1.09635 -0.638672,1.64453 l -11.84375,-1.30469 c 4.327307,-2.84887 9.506916,-6.1224 12.314453,-8.20898 l 0.0039,-0.004 c 5.103498,-3.62193 9.26292,-8.18274 9.951172,-14.43945 0.515281,-4.68429 -1.072949,-8.83386 -3.966797,-11.83984 -2.893848,-3.00598 -7.044547,-4.90443 -11.695312,-5.41602 -1.137115,-0.12509 -2.241907,-0.14627 -3.306641,-0.0742 z m 110.42773,0.12305 c -0.97932,-0.0809 -1.94344,-0.0619 -2.8789,0.041 -8.63751,0.95014 -15.84243,8.37874 -14.80469,17.8125 0.9762,8.87445 8.68791,15.15553 17.31055,14.20703 2.89219,-0.31815 5.73723,-1.36992 8.27539,-3.23438 -0.37936,2.83533 -1.108,5.49743 -2.42774,7.54102 -1.85004,2.86476 -4.40026,4.67275 -7.35742,4.99804 -0.41768,0.0459 -1.85573,-0.0134 -3,-0.27734 0.0659,-0.39675 0.16338,-0.76687 0.10938,-1.25781 -0.26548,-2.41345 -2.46492,-4.32418 -5.03907,-4.04102 -1.2101,0.13311 -2.34767,0.68942 -3.11718,1.63477 -0.76951,0.94535 -1.12278,2.24452 -0.97071,3.62695 0.15465,1.40586 0.79128,3.57522 2.77149,5.26172 1.98021,1.6865 5.19368,2.73136 10.03125,2.19922 10.32519,-1.13579 18.56745,-11.92141 16.94531,-26.66797 -0.85063,-7.73287 -3.00702,-13.0338 -5.89648,-16.50977 -2.88946,-3.47597 -6.518,-5.05031 -9.95118,-5.33398 z m -36.80273,2.86133 c -0.64647,0.034 -1.32804,0.24213 -1.83398,0.61914 -0.50594,0.37701 -0.81378,0.80188 -1.16211,1.26758 l 0.0469,-0.0586 c -2.12163,2.5451 -5.91105,2.96208 -7.45508,3.11719 a 1.3994173,1.3994173 0 0 0 -0.0312,0.004 c -0.72896,0.0907 -1.54117,0.36433 -2.20117,1.01367 -0.66,0.64934 -1.05049,1.67838 -0.99219,2.78711 0.0788,1.4979 1.04401,2.64826 1.9961,3.04883 0.95208,0.40056 1.81725,0.31398 2.10547,0.29882 1.70475,-0.0896 3.85457,-0.65061 5.875,-1.47265 l 1.57226,29.93164 -5.14648,0.26953 c -0.57551,0.0303 -1.4941,0.0188 -2.45508,0.54883 -0.96098,0.53003 -1.70255,1.82787 -1.625,3.30273 0.0771,1.46641 1.00584,2.65754 2.00977,3.0586 1.00392,0.40105 1.90994,0.29789 2.44921,0.26953 l 18.04688,-0.94922 c 0.53938,-0.0284 1.44964,-0.0214 2.40625,-0.52539 0.95661,-0.50396 1.75683,-1.78701 1.67969,-3.25391 -0.0776,-1.47527 -0.95306,-2.68807 -1.96485,-3.11328 -1.01178,-0.42521 -1.92538,-0.31538 -2.5,-0.28516 l -5.14453,0.26953 -1.89258,-35.99218 c -0.0302,-0.57541 -0.023,-1.49659 -0.52539,-2.46289 -0.50234,-0.96631 -1.79125,-1.77048 -3.25781,-1.69336 z m -34.31445,0.0664 c -4.08536,-0.21482 -7.37522,0.8545 -9.86719,2.68946 -2.49197,1.83495 -4.17728,4.37725 -5.33203,7.02734 -2.3095,5.30019 -2.58422,11.15072 -2.70899,13.52344 -0.12666,2.40872 -0.46693,8.27445 1.27344,13.79687 0.87019,2.76122 2.27859,5.46903 4.56445,7.55664 2.28587,2.08762 5.44394,3.49611 9.5293,3.71094 4.08536,0.21483 7.37522,-0.85449 9.86719,-2.68945 2.49197,-1.83496 4.17728,-4.37725 5.33203,-7.02735 2.3095,-5.30018 2.58422,-11.15073 2.70898,-13.52343 0.12667,-2.40873 0.46694,-8.27445 -1.27343,-13.79688 -0.87019,-2.76121 -2.27859,-5.46903 -4.56446,-7.55664 -2.28586,-2.08761 -5.44393,-3.49611 -9.52929,-3.71094 z m 69.02343,4.25977 c 2.58147,-0.28396 4.31204,0.87796 5.42188,1.99023 a 1.3994173,1.3994173 0 0 0 0.004,0.004 c 1.7707,1.76073 3.15844,4.55695 3.54492,8.07031 0.33288,3.02617 -2.38017,6.9674 -7.6836,7.55078 -5.03018,0.55333 -8.6487,-3.16512 -9.1582,-7.79687 -0.60167,-5.46956 3.43958,-9.33088 7.87109,-9.81836 z m -69.40234,2.91797 c 2.25938,0.11881 3.74485,0.90387 4.89453,2.0957 1.14968,1.19183 1.93863,2.85927 2.4375,4.70703 0.99775,3.69553 0.80124,7.9778 0.69727,9.95508 -0.1002,1.90543 -0.36681,6.54095 -1.78125,10.49219 -0.70722,1.97562 -1.69736,3.74855 -2.98438,4.9414 -1.28701,1.19286 -2.8217,1.87483 -5.04687,1.75782 -2.22516,-0.11701 -3.68093,-0.95793 -4.83594,-2.2793 -1.15501,-1.32137 -1.95287,-3.18756 -2.44922,-5.22656 -0.99271,-4.07801 -0.77401,-8.71396 -0.67383,-10.61914 0.10397,-1.97715 0.35821,-6.2578 1.73828,-9.82813 0.69004,-1.78516 1.64952,-3.36114 2.91797,-4.42578 1.26845,-1.06464 2.82655,-1.68912 5.08594,-1.57031 z"
   transform="matrix(0.86584103,0,0,0.88149657,-5.8386546,26.986739)"
   inkscape:export-xdpi="156.17"
   inkscape:export-ydpi="156.17" />
<path
   style="fill:#800080;stroke-width:1.17406106"
   d="m 46.550336,174.31994 c -6e-6,1.81798 -1.928872,3.29175 -4.308248,3.29175 -2.379375,0 -4.308241,-1.47377 -4.308247,-3.29175 -2e-6,-1.81799 1.928866,-3.29176 4.308247,-3.29176 2.379381,0 4.30825,1.47377 4.308248,3.29176 z"
   id="path2859"
   inkscape:connector-curvature="0"
   sodipodi:nodetypes="cscsc" /><path
   style="fill:#800080;stroke-width:1.17406106"
   d="m 193.32111,257.00658 c 0,1.19155 -0.99959,2.15748 -2.23265,2.15748 -1.23306,0 -2.23265,-0.96593 -2.23265,-2.15748 0,-1.19154 0.9996,-2.15748 2.23265,-2.15748 1.23306,0 2.23265,0.96594 2.23265,2.15748 z"
   id="path2857"
   inkscape:connector-curvature="0"
   sodipodi:nodetypes="cscsc" /><path
   style="fill:#800080;stroke-width:1"
   d="m 149.68239,171.4893 c 0,0 12.04146,-23.82118 19.9677,-16.36754 7.92624,7.45364 -19.9677,16.36754 -19.9677,16.36754 z"
   id="path2861"
   sodipodi:nodetypes="czc"
   inkscape:transform-center-x="-78.736026"
   inkscape:transform-center-y="-53.640173"
   inkscape:connector-curvature="0" /><path
   inkscape:transform-center-y="117.81592"
   inkscape:transform-center-x="-96.805405"
   sodipodi:nodetypes="czc"
   id="path2864"
   d="m 131.64273,272.02948 c 0,0 15.37283,11.16466 9.12916,15.84534 -6.09603,4.56999 -9.12916,-15.84534 -9.12916,-15.84534 z"
   style="fill:#800080;stroke-width:1"
   inkscape:connector-curvature="0" /><path
   style="fill:#800080;stroke-width:1"
   d="m 89.18034,277.64329 c 0,0 5.47537,18.83929 -3.10059,17.68836 -8.57596,-1.15093 3.10059,-17.68836 3.10059,-17.68836 z"
   id="path2866"
   sodipodi:nodetypes="czc"
   inkscape:transform-center-x="43.113623"
   inkscape:transform-center-y="133.27817"
   inkscape:connector-curvature="0" /></svg>