<?xml version="1.0" encoding="UTF-8" standalone="no"?>
<!-- Generator: Adobe Illustrator 18.0.0, SVG Export Plug-In . SVG Version: 6.00 Build 0)  -->

<svg
   xmlns:dc="http://purl.org/dc/elements/1.1/"
   xmlns:cc="http://creativecommons.org/ns#"
   xmlns:rdf="http://www.w3.org/1999/02/22-rdf-syntax-ns#"
   xmlns:svg="http://www.w3.org/2000/svg"
   xmlns="http://www.w3.org/2000/svg"
   xmlns:sodipodi="http://sodipodi.sourceforge.net/DTD/sodipodi-0.dtd"
   xmlns:inkscape="http://www.inkscape.org/namespaces/inkscape"
   version="1.1"
   id="Capa_1"
   x="0px"
   y="0px"
   viewBox="0 0 270.60708 328.76088"
   xml:space="preserve"
   sodipodi:docname="logo-salt-2019-white.svg"
   width="270.60709"
   height="328.76089"
   inkscape:version="0.92.3 (2405546, 2018-03-11)"><metadata
     id="metadata51"><rdf:RDF><cc:Work
         rdf:about=""><dc:format>image/svg+xml</dc:format><dc:type
           rdf:resource="http://purl.org/dc/dcmitype/StillImage" /><dc:title></dc:title></cc:Work></rdf:RDF></metadata><defs
     id="defs49" /><sodipodi:namedview
     pagecolor="#ffffff"
     bordercolor="#666666"
     borderopacity="1"
     objecttolerance="10"
     gridtolerance="10"
     guidetolerance="10"
     inkscape:pageopacity="0"
     inkscape:pageshadow="2"
     inkscape:window-width="3840"
     inkscape:window-height="2040"
     id="namedview47"
     showgrid="true"
     showguides="true"
     inkscape:guide-bbox="true"
     fit-margin-top="0"
     fit-margin-left="29"
     fit-margin-right="29"
     fit-margin-bottom="0"
     inkscape:zoom="3.6440298"
     inkscape:cx="101.78934"
     inkscape:cy="153.95032"
     inkscape:window-x="0"
     inkscape:window-y="0"
     inkscape:window-maximized="1"
     inkscape:current-layer="Capa_1"
     inkscape:snap-bbox="true"
     inkscape:snap-bbox-midpoints="true"
     inkscape:snap-midpoints="true"
     inkscape:snap-grids="false"><inkscape:grid
       type="xygrid"
       id="grid870"
       originx="-15.171369"
       originy="49.153284" /><sodipodi:guide
       position="214.82863,73.595254"
       orientation="1,0"
       id="guide4563"
       inkscape:locked="false" /><sodipodi:guide
       position="144.82863,59.153301"
       orientation="0,1"
       id="guide4565"
       inkscape:locked="false" /><sodipodi:guide
       position="134.82864,609.15327"
       orientation="0,1"
       id="guide4593"
       inkscape:locked="false" /><sodipodi:guide
       position="140.82863,267.15327"
       orientation="0,1"
       id="guide855"
       inkscape:locked="false" /><sodipodi:guide
       position="223.82863,60.153298"
       orientation="0,1"
       id="guide876"
       inkscape:locked="false" /><sodipodi:guide
       position="148.29004,202.2609"
       orientation="0,1"
       id="guide843"
       inkscape:locked="false" /></sodipodi:namedview><g
     id="g16"
     transform="translate(-15.171373,-17.70847)" /><g
     id="g18"
     transform="translate(-15.171373,-17.70847)" /><g
     id="g20"
     transform="translate(-15.171373,-17.70847)" /><g
     id="g22"
     transform="translate(-15.171373,-17.70847)" /><g
     id="g24"
     transform="translate(-15.171373,-17.70847)" /><g
     id="g26"
     transform="translate(-15.171373,-17.70847)" /><g
     id="g28"
     transform="translate(-15.171373,-17.70847)" /><g
     id="g30"
     transform="translate(-15.171373,-17.70847)" /><g
     id="g32"
     transform="translate(-15.171373,-17.70847)" /><g
     id="g34"
     transform="translate(-15.171373,-17.70847)" /><g
     id="g36"
     transform="translate(-15.171373,-17.70847)" /><g
     id="g38"
     transform="translate(-15.171373,-17.70847)" /><g
     id="g40"
     transform="translate(-15.171373,-17.70847)" /><g
     id="g42"
     transform="translate(-15.171373,-17.70847)" /><g
     id="g44"
     transform="translate(-15.171373,-17.70847)" /><path
     style="color:#000000;font-style:normal;font-variant:normal;font-weight:normal;font-stretch:normal;font-size:medium;line-height:normal;font-family:sans-serif;font-variant-ligatures:normal;font-variant-position:normal;font-variant-caps:normal;font-variant-numeric:normal;font-variant-alternates:normal;font-feature-settings:normal;text-indent:0;text-align:start;text-decoration:none;text-decoration-line:none;text-decoration-style:solid;text-decoration-color:#000000;letter-spacing:normal;word-spacing:normal;text-transform:none;writing-mode:lr-tb;direction:ltr;text-orientation:mixed;dominant-baseline:auto;baseline-shift:baseline;text-anchor:start;white-space:normal;shape-padding:0;clip-rule:nonzero;display:inline;overflow:visible;visibility:visible;opacity:1;isolation:auto;mix-blend-mode:normal;color-interpolation:sRGB;color-interpolation-filters:linearRGB;solid-color:#000000;solid-opacity:1;vector-effect:none;fill:#ffffff;fill-opacity:1;fill-rule:nonzero;stroke:none;stroke-width:20;stroke-linecap:round;stroke-linejoin:round;stroke-miterlimit:4;stroke-dasharray:none;stroke-dashoffset:0;stroke-opacity:1;marker:none;paint-order:stroke fill markers;color-rendering:auto;image-rendering:auto;shape-rendering:auto;text-rendering:auto;enable-background:accumulate"
     d="M 136.64837,0 C 86.660461,0 54.240425,14.364428 38.642505,34.992188 c -7.79896,10.313879 -11.086502,22.455519 -9.054687,33.867187 1.693809,9.513264 7.034113,18.181833 15.003906,24.800781 L 29.884693,258.54297 c -2.182264,15.86119 5.204041,29.75942 13.634765,39.75586 4.250215,5.03954 8.87559,9.21589 13.304688,12.44531 4.429098,3.22942 8.270581,5.57339 13.066406,6.77148 5.64422,1.41008 46.471338,11.36648 65.015628,11.24415 8.584,-0.0566 22.43249,-2.19432 35.94141,-4.58008 6.75446,-1.19288 13.2194,-2.45805 18.41211,-3.61719 2.59635,-0.57957 4.86577,-1.12939 6.79101,-1.66406 1.92524,-0.53468 2.98507,-0.60484 5.63672,-2.10352 4.12428,-2.33098 13.99472,-7.44771 22.71289,-15.82226 8.71817,-8.37456 16.84932,-21.20082 15.38672,-37.27149 l 0.006,0.0527 -14.5625,-169.888676 c 8.02585,-6.588155 13.53009,-15.191259 15.53501,-24.693319 2.37908,-11.275218 -0.31879,-23.482737 -7.67968,-33.914063 C 218.36409,14.395162 186.63627,0 136.64837,0 Z m 0,8.5 c 48.32402,0 77.13486,14.146274 89.49218,31.658203 6.17869,8.755965 8.18249,18.37683 6.3086,27.257813 -1.83904,8.715809 -7.39674,16.667573 -16.0918,22.46289 l 14.96289,174.574214 0.002,0.0254 c 1.85761,12.67141 -4.47693,22.91248 -12.25977,30.3789 -7.80223,7.48503 -17.13411,12.37586 -21.71875,14.6836 -0.8971,0.45156 -2.11987,0.77154 -3.94922,1.21679 -1.82935,0.44525 -4.16922,0.94712 -6.87109,1.48438 -5.40375,1.07452 -12.24894,2.28755 -19.22071,3.43359 -6.97176,1.14604 -14.06718,2.22419 -19.96875,3.02344 -5.90156,0.79925 -10.53075,1.32547 -12.89062,1.35547 -2.44773,0.0311 -7.38645,-0.56838 -13.79883,-1.50391 -6.41238,-0.93552 -14.17587,-2.21883 -21.787111,-3.5918 -7.611238,-1.37296 -15.067029,-2.83453 -20.867188,-4.1289 -2.900079,-0.64719 -5.383526,-1.25099 -7.287109,-1.78906 -0.951791,-0.26904 -1.757882,-0.52201 -2.416016,-0.76368 -0.658133,-0.24166 -1.134642,-0.41773 -1.638671,-0.79882 -3.576586,-2.70422 -11.720256,-8.5963 -18.439454,-16.83985 -6.694104,-8.21275 -12.06088,-18.92634 -9.875,-31.16406 L 53.476489,89.703125 C 44.832259,83.918969 39.496333,76.01502 37.956958,67.369141 c -1.584877,-8.90145 0.857241,-18.511653 7.464844,-27.25 C 58.637008,22.642445 88.324343,8.5 136.64837,8.5 Z m 0,3 c -47.736775,0 -76.457789,14.06318 -88.832037,30.427734 -6.187124,8.182278 -8.333385,16.900525 -6.90625,24.916016 1.413586,7.939389 6.349417,15.256755 14.712891,20.6875 a 1.50015,1.50015 0 0 1 0.927734,1.439453 1.5002301,1.5002301 0 0 1 -0.0059,0.101563 1.5002301,1.5002301 0 0 1 -0.0078,0.08984 v 0.002 L 41.322193,259.74023 a 1.50015,1.50015 0 0 1 -0.01758,0.13672 c -2.042644,11.15682 2.819745,21.0021 9.230468,28.86719 6.410724,7.86509 14.275962,13.58322 17.921875,16.33984 -0.05262,-0.0398 0.321544,0.17927 0.865235,0.37891 0.54369,0.19964 1.291688,0.43543 2.197265,0.69141 1.811155,0.51195 4.257404,1.1081 7.125,1.74804 5.735193,1.27988 13.162206,2.73584 20.744141,4.10352 7.581933,1.36768 15.322753,2.64731 21.689443,3.57617 6.36672,0.92886 11.48276,1.49606 13.32813,1.47266 1.93323,-0.0246 6.66229,-0.53409 12.52539,-1.32813 5.8631,-0.79404 12.93755,-1.86776 19.88477,-3.00976 6.94721,-1.14201 13.76878,-2.35368 19.12109,-3.41797 2.67615,-0.53215 4.98709,-1.02648 6.74805,-1.45508 1.76096,-0.4286 3.06776,-0.86119 3.30859,-0.98242 4.51887,-2.27463 13.58165,-7.06059 20.99024,-14.16797 7.40855,-7.10738 13.08597,-16.34127 11.36132,-27.86328 a 1.50015,1.50015 0 0 1 -0.0117,-0.0937 l -15,-175.000002 a 1.50015,1.50015 0 0 1 0.17579,-0.886719 1.50015,1.50015 0 0 1 0.72656,-1.154297 c 8.40756,-5.449431 13.58175,-12.862479 15.27734,-20.898437 1.69559,-8.035958 -0.0628,-16.743543 -5.82422,-24.908203 C 212.16656,25.559351 184.38514,11.5 136.64837,11.5 Z m 0,8.5 c 46.07289,0 70.93732,13.810468 80.0957,26.789062 4.57919,6.489298 5.64353,12.612187 4.45313,18.253907 -1.19041,5.64172 -4.80138,11.123327 -11.58399,15.519531 a 10.001,10.001 0 0 0 -4.64062,7.205078 10.001,10.001 0 0 0 -0.0215,0.126953 10.001,10.001 0 0 0 -0.002,0.02148 10.001,10.001 0 0 0 -0.084,2.544922 l 15,174.999997 a 10.001,10.001 0 0 0 0.004,0.0527 c 0.79319,8.71532 -3.16628,15.11993 -9.32422,21.03516 -6.15794,5.91523 -13.94734,10.14829 -18.69922,12.83398 1.54213,-0.8716 0.24871,-0.14139 -1.14648,0.2461 -1.39519,0.38747 -3.41488,0.88234 -5.79688,1.41406 -4.76399,1.06344 -11.01727,2.29064 -17.5332,3.44141 -13.03186,2.30151 -27.92784,4.24655 -32.5957,4.27734 -7.95941,0.0525 -59.139925,-10.42674 -60.035162,-10.65039 0.02661,0.007 -3.020008,-1.25911 -6.130859,-3.52735 -3.110851,-2.26824 -6.676124,-5.47704 -9.798828,-9.17969 -6.245409,-7.40528 -10.274316,-16.27224 -9.085938,-24.33985 a 10.001,10.001 0 0 0 0.06641,-0.56836 L 64.874927,91.365234 A 10.001,10.001 0 0 0 64.355396,85.125 10.001,10.001 0 0 0 64.197193,84.746094 10.001,10.001 0 0 0 64.154224,84.65625 10.001,10.001 0 0 0 59.238208,79.722656 C 53.211292,75.511241 50.198007,70.524822 49.277271,65.353516 48.297073,59.848245 49.599864,53.661431 54.59563,47.054688 64.587162,33.8412 90.575474,20 136.64837,20 Z"
     id="path868"
     inkscape:connector-curvature="0" /><path
     style="color:#000000;font-style:normal;font-variant:normal;font-weight:normal;font-stretch:normal;font-size:medium;line-height:normal;font-family:sans-serif;font-variant-ligatures:normal;font-variant-position:normal;font-variant-caps:normal;font-variant-numeric:normal;font-variant-alternates:normal;font-feature-settings:normal;text-indent:0;text-align:start;text-decoration:none;text-decoration-line:none;text-decoration-style:solid;text-decoration-color:#000000;letter-spacing:normal;word-spacing:normal;text-transform:none;writing-mode:lr-tb;direction:ltr;text-orientation:mixed;dominant-baseline:auto;baseline-shift:baseline;text-anchor:start;white-space:normal;shape-padding:0;clip-rule:nonzero;display:inline;overflow:visible;visibility:visible;opacity:1;isolation:auto;mix-blend-mode:normal;color-interpolation:sRGB;color-interpolation-filters:linearRGB;solid-color:#000000;solid-opacity:1;vector-effect:none;fill:#ffffff;fill-opacity:1;fill-rule:nonzero;stroke:none;stroke-width:12.69188118;stroke-linecap:round;stroke-linejoin:round;stroke-miterlimit:4;stroke-dasharray:none;stroke-dashoffset:0;stroke-opacity:1;marker:none;paint-order:stroke fill markers;color-rendering:auto;image-rendering:auto;shape-rendering:auto;text-rendering:auto;enable-background:accumulate"
     d="m 92.240161,120.06641 a 6.3465752,6.3465752 0 0 0 -6.128906,5.90625 L 73.521411,277.13672 a 6.3465752,6.3465752 0 1 0 12.648438,1.05273 L 98.759693,127.02734 a 6.3465752,6.3465752 0 0 0 -6.519532,-6.96093 z"
     id="path4567"
     inkscape:connector-curvature="0" /><path
     style="color:#000000;font-style:normal;font-variant:normal;font-weight:normal;font-stretch:normal;font-size:medium;line-height:normal;font-family:sans-serif;font-variant-ligatures:normal;font-variant-position:normal;font-variant-caps:normal;font-variant-numeric:normal;font-variant-alternates:normal;font-feature-settings:normal;text-indent:0;text-align:start;text-decoration:none;text-decoration-line:none;text-decoration-style:solid;text-decoration-color:#000000;letter-spacing:normal;word-spacing:normal;text-transform:none;writing-mode:lr-tb;direction:ltr;text-orientation:mixed;dominant-baseline:auto;baseline-shift:baseline;text-anchor:start;white-space:normal;shape-padding:0;clip-rule:nonzero;display:inline;overflow:visible;visibility:visible;opacity:1;isolation:auto;mix-blend-mode:normal;color-interpolation:sRGB;color-interpolation-filters:linearRGB;solid-color:#000000;solid-opacity:1;vector-effect:none;fill:#ffffff;fill-opacity:1;fill-rule:nonzero;stroke:none;stroke-width:13.14656544;stroke-linecap:round;stroke-linejoin:round;stroke-miterlimit:4;stroke-dasharray:none;stroke-dashoffset:0;stroke-opacity:1;marker:none;paint-order:stroke fill markers;color-rendering:auto;image-rendering:auto;shape-rendering:auto;text-rendering:auto;enable-background:accumulate"
     d="m 134.7304,125.74219 a 6.57394,6.57394 0 0 0 -6.47461,6.66601 v 157.0586 a 6.57394,6.57394 0 1 0 13.14648,0 V 132.4082 a 6.57394,6.57394 0 0 0 -6.67187,-6.66601 z"
     id="path4569"
     inkscape:connector-curvature="0" /><path
     style="color:#000000;font-style:normal;font-variant:normal;font-weight:normal;font-stretch:normal;font-size:medium;line-height:normal;font-family:sans-serif;font-variant-ligatures:normal;font-variant-position:normal;font-variant-caps:normal;font-variant-numeric:normal;font-variant-alternates:normal;font-feature-settings:normal;text-indent:0;text-align:start;text-decoration:none;text-decoration-line:none;text-decoration-style:solid;text-decoration-color:#000000;letter-spacing:normal;word-spacing:normal;text-transform:none;writing-mode:lr-tb;direction:ltr;text-orientation:mixed;dominant-baseline:auto;baseline-shift:baseline;text-anchor:start;white-space:normal;shape-padding:0;clip-rule:nonzero;display:inline;overflow:visible;visibility:visible;opacity:1;isolation:auto;mix-blend-mode:normal;color-interpolation:sRGB;color-interpolation-filters:linearRGB;solid-color:#000000;solid-opacity:1;vector-effect:none;fill:#ffffff;fill-opacity:1;fill-rule:nonzero;stroke:none;stroke-width:12.69913578;stroke-linecap:round;stroke-linejoin:round;stroke-miterlimit:4;stroke-dasharray:none;stroke-dashoffset:0;stroke-opacity:1;marker:none;paint-order:stroke fill markers;color-rendering:auto;image-rendering:auto;shape-rendering:auto;text-rendering:auto;enable-background:accumulate"
     d="m 179.55462,120.0625 a 6.3502028,6.3502028 0 0 0 -6.47071,6.83789 l 9.56446,151.33984 a 6.3502028,6.3502028 0 1 0 12.67383,-0.80078 l -9.56446,-151.33984 a 6.3502028,6.3502028 0 0 0 -6.20312,-6.03711 z"
     id="path4571"
     inkscape:connector-curvature="0" /><path
     style="color:#000000;font-style:normal;font-variant:normal;font-weight:normal;font-stretch:normal;font-size:medium;line-height:normal;font-family:sans-serif;font-variant-ligatures:normal;font-variant-position:normal;font-variant-caps:normal;font-variant-numeric:normal;font-variant-alternates:normal;font-feature-settings:normal;text-indent:0;text-align:start;text-decoration:none;text-decoration-line:none;text-decoration-style:solid;text-decoration-color:#000000;letter-spacing:normal;word-spacing:normal;text-transform:none;writing-mode:lr-tb;direction:ltr;text-orientation:mixed;dominant-baseline:auto;baseline-shift:baseline;text-anchor:start;white-space:normal;shape-padding:0;clip-rule:nonzero;display:inline;overflow:visible;visibility:visible;opacity:1;isolation:auto;mix-blend-mode:normal;color-interpolation:sRGB;color-interpolation-filters:linearRGB;solid-color:#000000;solid-opacity:1;vector-effect:none;fill:#ffffff;fill-opacity:1;fill-rule:nonzero;stroke:none;stroke-width:20;stroke-linecap:round;stroke-linejoin:round;stroke-miterlimit:4;stroke-dasharray:none;stroke-dashoffset:0;stroke-opacity:1;marker:none;paint-order:stroke fill markers;color-rendering:auto;image-rendering:auto;shape-rendering:auto;text-rendering:auto;enable-background:accumulate"
     d="m 114.82805,31.607422 a 10.001,10.001 0 1 0 0,20 10.001,10.001 0 1 0 0,-20 z"
     id="path4577"
     inkscape:connector-curvature="0" /><path
     style="color:#000000;font-style:normal;font-variant:normal;font-weight:normal;font-stretch:normal;font-size:medium;line-height:normal;font-family:sans-serif;font-variant-ligatures:normal;font-variant-position:normal;font-variant-caps:normal;font-variant-numeric:normal;font-variant-alternates:normal;font-feature-settings:normal;text-indent:0;text-align:start;text-decoration:none;text-decoration-line:none;text-decoration-style:solid;text-decoration-color:#000000;letter-spacing:normal;word-spacing:normal;text-transform:none;writing-mode:lr-tb;direction:ltr;text-orientation:mixed;dominant-baseline:auto;baseline-shift:baseline;text-anchor:start;white-space:normal;shape-padding:0;clip-rule:nonzero;display:inline;overflow:visible;visibility:visible;opacity:1;isolation:auto;mix-blend-mode:normal;color-interpolation:sRGB;color-interpolation-filters:linearRGB;solid-color:#000000;solid-opacity:1;vector-effect:none;fill:#ffffff;fill-opacity:1;fill-rule:nonzero;stroke:none;stroke-width:20;stroke-linecap:round;stroke-linejoin:round;stroke-miterlimit:4;stroke-dasharray:none;stroke-dashoffset:0;stroke-opacity:1;marker:none;paint-order:stroke fill markers;color-rendering:auto;image-rendering:auto;shape-rendering:auto;text-rendering:auto;enable-background:accumulate"
     d="m 154.82805,31.607422 a 10.001,10.001 0 1 0 0,20 10.001,10.001 0 1 0 0,-20 z"
     id="path4579"
     inkscape:connector-curvature="0" /><path
     style="color:#000000;font-style:normal;font-variant:normal;font-weight:normal;font-stretch:normal;font-size:medium;line-height:normal;font-family:sans-serif;font-variant-ligatures:normal;font-variant-position:normal;font-variant-caps:normal;font-variant-numeric:normal;font-variant-alternates:normal;font-feature-settings:normal;text-indent:0;text-align:start;text-decoration:none;text-decoration-line:none;text-decoration-style:solid;text-decoration-color:#000000;letter-spacing:normal;word-spacing:normal;text-transform:none;writing-mode:lr-tb;direction:ltr;text-orientation:mixed;dominant-baseline:auto;baseline-shift:baseline;text-anchor:start;white-space:normal;shape-padding:0;clip-rule:nonzero;display:inline;overflow:visible;visibility:visible;opacity:1;isolation:auto;mix-blend-mode:normal;color-interpolation:sRGB;color-interpolation-filters:linearRGB;solid-color:#000000;solid-opacity:1;vector-effect:none;fill:#ffffff;fill-opacity:1;fill-rule:nonzero;stroke:none;stroke-width:12;stroke-linecap:round;stroke-linejoin:round;stroke-miterlimit:4;stroke-dasharray:none;stroke-dashoffset:0;stroke-opacity:1;marker:none;paint-order:stroke fill markers;color-rendering:auto;image-rendering:auto;shape-rendering:auto;text-rendering:auto;enable-background:accumulate"
     d="m 79.441333,86.037109 a 6.0006,6.0006 0 0 0 -2.125,11.699219 C 116.94088,111.2946 155.15116,111.16769 191.23821,98.291016 a 6.0006,6.0006 0 1 0 -4.0332,-11.300782 C 153.59236,98.983988 118.59387,99.177441 81.201099,86.382812 a 6.0006,6.0006 0 0 0 -1.759766,-0.345703 z"
     id="path4575-3"
     inkscape:connector-curvature="0" /></svg>